<svg preserveAspectRatio="none" width="100%" height="100%" overflow="visible" style="display: block;" viewBox="0 0 25 12" fill="none" xmlns="http://www.w3.org/2000/svg">
<g id="dash-blog" clip-path="url(#clip0_0_31)">
<path id="Vector" d="M5.32189 0H2.36252L2.11754 1.41133L4.78724 1.41502C6.10152 1.41502 6.49133 1.90696 6.47882 2.72317C6.47345 3.14141 6.29643 3.84892 6.22132 4.07738C6.01926 4.68908 5.60263 5.38554 4.04158 5.38369L1.44878 5.38185L1.2038 6.79502H4.15602C5.19672 6.79502 5.64018 6.66974 6.10867 6.4468C7.14758 5.95302 7.76628 4.89544 8.01483 3.51543C8.3814 1.46108 7.92185 0 5.32189 0Z" fill="var(--fill-0, white)"/>
<path id="Vector_2" d="M14.47 6.79875L14.6792 5.57167H17.2059C17.4044 5.57167 17.5438 5.44822 17.5725 5.24371C17.6118 5.0392 17.5134 4.91575 17.315 4.91575H16.1062C15.1531 4.91575 14.6971 4.34274 14.8652 3.36071C15.0333 2.37867 15.6895 1.80566 16.6426 1.80566H19.3874L19.1693 3.03275H16.7499C16.5514 3.03275 16.4119 3.15619 16.3833 3.36071C16.344 3.56522 16.4423 3.68867 16.6408 3.68867H17.8496C18.8027 3.68867 19.2587 4.26168 19.0906 5.24371C18.9225 6.22575 18.2752 6.79875 17.3221 6.79875H14.47Z" fill="var(--fill-0, white)"/>
<path id="Vector_3" d="M10.6207 6.7968C9.05253 6.7968 8.34622 5.9161 8.62517 4.30026C8.89339 2.68441 9.90548 1.80371 11.4755 1.80371H14.256L13.4013 6.7968H10.6207ZM12.4268 3.03264H11.7115C10.8568 3.03264 10.3525 3.4214 10.2041 4.30026C10.045 5.18096 10.3632 5.56972 11.2162 5.56972H11.9994L12.4268 3.03264Z" fill="var(--fill-0, white)"/>
<path id="Vector_4" d="M22.832 6.79687L23.3291 3.89129C23.4185 3.31829 23.1932 3.07324 22.6371 3.07324H21.8467L21.2119 6.79687H19.6026L20.7649 0H22.3742L22.0649 1.80562H23.2701C24.6791 1.80562 25.187 2.43943 24.9384 3.89314L24.4413 6.79871L22.832 6.79687Z" fill="var(--fill-0, white)"/>
<path id="Vector_5" d="M1.08719 2.68848C0.312925 2.68848 0.20206 3.20805 0.128746 3.52312C0.0321865 3.93399 0 4.10165 0 4.10165H3.02911C3.80338 4.10165 3.91424 3.58207 3.98755 3.26701C4.08411 2.8543 4.11451 2.68848 4.11451 2.68848H1.08719Z" fill="var(--fill-0, white)"/>
<g id="Group">
<path id="Vector_6" d="M17.5023 9.95159C17.5667 10.0474 17.6007 10.1672 17.6007 10.309C17.6007 10.5983 17.4916 10.8176 17.2734 10.9686C17.0553 11.1179 16.762 11.1934 16.3919 11.1934H15.024L15.5693 8.38181H16.8282C17.1107 8.38181 17.3307 8.43524 17.4844 8.54394C17.6382 8.65265 17.7169 8.80926 17.7169 9.01193C17.7169 9.18512 17.6722 9.33436 17.5846 9.45965C17.497 9.58494 17.3772 9.67706 17.2305 9.73971C17.3468 9.78392 17.438 9.85578 17.5023 9.95159ZM16.9194 10.6628C17.0356 10.5817 17.0928 10.4638 17.0928 10.309C17.0928 10.1893 17.0517 10.1027 16.9695 10.0492C16.8872 9.99765 16.7656 9.97001 16.6011 9.97001H15.7625L15.6069 10.7807H16.4259C16.6387 10.7825 16.8032 10.742 16.9194 10.6628ZM15.9931 8.79083L15.8411 9.56651H16.5618C16.7549 9.56651 16.9069 9.52782 17.0177 9.4486C17.1286 9.36937 17.1858 9.25329 17.1858 9.10037C17.1858 8.89401 17.0285 8.79083 16.7138 8.79083H15.9931Z" fill="var(--fill-0, white)"/>
<path id="Vector_7" d="M18.5198 8.21188H19.0079L18.4304 11.193H17.9422L18.5198 8.21188Z" fill="var(--fill-0, white)"/>
<path id="Vector_8" d="M19.5654 11.1027C19.4134 11.0235 19.2954 10.9129 19.2131 10.771C19.1291 10.6292 19.088 10.4652 19.088 10.2773C19.088 10.0396 19.1398 9.82402 19.2453 9.63424C19.3508 9.44447 19.4974 9.29523 19.6852 9.18652C19.873 9.07782 20.0857 9.02438 20.3218 9.02438C20.5238 9.02438 20.7027 9.06308 20.8564 9.14046C21.0102 9.21784 21.1282 9.32839 21.2105 9.47026C21.2927 9.61213 21.3357 9.77611 21.3357 9.96404C21.3357 10.2017 21.282 10.4173 21.1765 10.6071C21.0692 10.7968 20.9226 10.9479 20.7348 11.0566C20.5471 11.1672 20.3343 11.2206 20.0983 11.2206C19.8944 11.2206 19.7174 11.1801 19.5654 11.1027ZM20.497 10.6881C20.6043 10.62 20.6901 10.5242 20.7527 10.4026C20.8153 10.2809 20.8457 10.1428 20.8457 9.98615C20.8457 9.81665 20.7974 9.68583 20.7009 9.59002C20.6043 9.49421 20.4702 9.44815 20.295 9.44815C20.1573 9.44815 20.0339 9.48316 19.9266 9.55133C19.8193 9.6195 19.7335 9.71531 19.6709 9.83691C19.6083 9.95852 19.5779 10.0967 19.5779 10.2533C19.5779 10.4228 19.6262 10.5536 19.7228 10.6494C19.8193 10.7453 19.9534 10.7913 20.1287 10.7913C20.2663 10.7913 20.3897 10.7563 20.497 10.6881Z" fill="var(--fill-0, white)"/>
<path id="Vector_9" d="M24.0666 9.04652L23.7125 10.8669C23.6339 11.2612 23.4908 11.5486 23.2798 11.7292C23.0688 11.9097 22.7845 12 22.4269 12C22.0192 12 21.6937 11.9023 21.4523 11.707L21.7062 11.3293C21.7867 11.4012 21.894 11.4602 22.0281 11.5044C22.1622 11.5486 22.3053 11.5707 22.4591 11.5707C22.6826 11.5707 22.8542 11.5191 22.974 11.4178C23.0938 11.3164 23.1725 11.1598 23.2119 10.9516L23.2315 10.8466C23.0438 11.0124 22.8167 11.0953 22.5485 11.0953C22.3696 11.0953 22.2087 11.0585 22.0674 10.9866C21.9262 10.9148 21.8153 10.8116 21.7366 10.6771C21.658 10.5426 21.6186 10.386 21.6186 10.2073C21.6186 9.98802 21.6687 9.7872 21.7706 9.60663C21.8725 9.42607 22.012 9.2842 22.1944 9.17918C22.375 9.07416 22.5771 9.02257 22.8006 9.02257C22.9651 9.02257 23.1117 9.05389 23.2405 9.11654C23.371 9.17918 23.4694 9.27315 23.5373 9.40028L23.6035 9.04652H24.0666ZM23.0241 10.5758C23.1314 10.5131 23.2172 10.4265 23.278 10.3141C23.3388 10.2036 23.3692 10.0783 23.3692 9.93828C23.3692 9.78535 23.3209 9.66559 23.2244 9.579C23.1278 9.4924 22.9937 9.44818 22.822 9.44818C22.6844 9.44818 22.561 9.4795 22.4519 9.54215C22.3428 9.60479 22.257 9.69139 22.1962 9.80378C22.1354 9.91432 22.105 10.0396 22.105 10.1796C22.105 10.3289 22.1533 10.4486 22.2516 10.5371C22.35 10.6255 22.4841 10.6697 22.6557 10.6697C22.7934 10.6697 22.9168 10.6384 23.0241 10.5758Z" fill="var(--fill-0, white)"/>
</g>
</g>
<defs>
<clipPath id="clip0_0_31">
<rect width="25" height="12" fill="white"/>
</clipPath>
</defs>
</svg>
