<svg preserveAspectRatio="none" width="100%" height="100%" overflow="visible" style="display: block;" viewBox="0 0 25 11" fill="none" xmlns="http://www.w3.org/2000/svg">
<g id="dash-forum" clip-path="url(#clip0_0_52)">
<path id="Vector" d="M5.32189 0H2.36252L2.11754 1.29372L4.78724 1.2971C6.10152 1.2971 6.49133 1.74804 6.47882 2.49624C6.47345 2.87963 6.29643 3.52817 6.22132 3.7376C6.01926 4.29833 5.60263 4.93674 4.04158 4.93505L1.44878 4.93336L1.2038 6.22877H4.15602C5.19672 6.22877 5.64018 6.11393 6.10867 5.90956C7.14758 5.45693 7.76628 4.48749 8.01483 3.22248C8.3814 1.33932 7.92185 0 5.32189 0Z" fill="var(--fill-0, white)"/>
<path id="Vector_2" d="M14.47 6.23219L14.6792 5.10736H17.2059C17.4044 5.10736 17.5438 4.99421 17.5725 4.80674C17.6118 4.61926 17.5134 4.50611 17.315 4.50611H16.1062C15.1531 4.50611 14.6971 3.98085 14.8652 3.08065C15.0333 2.18045 15.6895 1.65519 16.6426 1.65519H19.3874L19.1693 2.78002H16.7499C16.5514 2.78002 16.4119 2.89318 16.3833 3.08065C16.344 3.26812 16.4423 3.38128 16.6408 3.38128H17.8496C18.8027 3.38128 19.2587 3.90654 19.0906 4.80674C18.9225 5.70693 18.2752 6.23219 17.3221 6.23219H14.47Z" fill="var(--fill-0, white)"/>
<path id="Vector_3" d="M10.6207 6.2304C9.05253 6.2304 8.34622 5.42309 8.62517 3.9419C8.89339 2.46071 9.90548 1.6534 11.4755 1.6534H14.256L13.4013 6.2304H10.6207ZM12.4268 2.77992H11.7115C10.8568 2.77992 10.3525 3.13628 10.2041 3.9419C10.045 4.74921 10.3632 5.10557 11.2162 5.10557H11.9994L12.4268 2.77992Z" fill="var(--fill-0, white)"/>
<path id="Vector_4" d="M22.832 6.23046L23.3291 3.56702C23.4185 3.04176 23.1932 2.81713 22.6371 2.81713H21.8467L21.2119 6.23046H19.6026L20.7649 0H22.3742L22.0649 1.65515H23.2701C24.6791 1.65515 25.187 2.23614 24.9384 3.56871L24.4413 6.23215L22.832 6.23046Z" fill="var(--fill-0, white)"/>
<path id="Vector_5" d="M1.08719 2.46444C0.312925 2.46444 0.20206 2.94072 0.128746 3.22952C0.0321865 3.60615 0 3.75985 0 3.75985H3.02911C3.80338 3.75985 3.91424 3.28357 3.98756 2.99476C4.08411 2.61644 4.11451 2.46444 4.11451 2.46444H1.08719Z" fill="var(--fill-0, white)"/>
<g id="Group">
<path id="Vector_6" d="M11.9877 7.92784L11.8196 8.7115H13.141L13.0552 9.11684H11.7374L11.5264 10.1032H11.0203L11.5657 7.52587H13.5577L13.4719 7.92784H11.9877Z" fill="var(--fill-0, white)"/>
<path id="Vector_7" d="M13.896 10.0209C13.744 9.94828 13.6259 9.84695 13.5437 9.7169C13.4597 9.58685 13.4185 9.43654 13.4185 9.26427C13.4185 9.0464 13.4704 8.84879 13.5759 8.67483C13.6814 8.50087 13.828 8.36407 14.0158 8.26442C14.2035 8.16477 14.4163 8.1158 14.6523 8.1158C14.8544 8.1158 15.0332 8.15126 15.187 8.2222C15.3408 8.29313 15.4588 8.39447 15.541 8.52452C15.6233 8.65456 15.6662 8.80488 15.6662 8.97715C15.6662 9.19502 15.6126 9.39263 15.5071 9.56659C15.3998 9.74055 15.2532 9.87904 15.0654 9.97869C14.8776 10.08 14.6649 10.129 14.4288 10.129C14.2268 10.129 14.0479 10.0935 13.896 10.0209ZM14.8276 9.6409C14.9349 9.57841 15.0207 9.49058 15.0833 9.37912C15.1459 9.26765 15.1763 9.14098 15.1763 8.99742C15.1763 8.84204 15.128 8.72212 15.0314 8.6343C14.9349 8.54647 14.8008 8.50425 14.6255 8.50425C14.4878 8.50425 14.3645 8.53634 14.2572 8.59883C14.1499 8.66132 14.064 8.74914 14.0015 8.86061C13.9389 8.97208 13.9085 9.09875 13.9085 9.24231C13.9085 9.39769 13.9568 9.51761 14.0533 9.60543C14.1499 9.69326 14.284 9.73548 14.4592 9.73548C14.5969 9.73548 14.7203 9.70339 14.8276 9.6409Z" fill="var(--fill-0, white)"/>
<path id="Vector_8" d="M17.0694 8.17739C17.2 8.13517 17.3573 8.1149 17.5397 8.1149L17.4503 8.55233C17.4056 8.54558 17.3663 8.54051 17.3287 8.54051C16.9318 8.54051 16.6904 8.73812 16.6081 9.13333L16.4007 10.1011H15.9125L16.3256 8.13686H16.7905L16.7351 8.3902C16.8263 8.29055 16.9371 8.21961 17.0694 8.17739Z" fill="var(--fill-0, white)"/>
<path id="Vector_9" d="M19.9816 8.13718L19.565 10.1031H19.1018L19.1483 9.88522C18.9606 10.0474 18.7263 10.1284 18.442 10.1284C18.2131 10.1284 18.0307 10.0693 17.8948 9.95278C17.7589 9.83624 17.691 9.67242 17.691 9.4613C17.691 9.38361 17.6999 9.30423 17.7178 9.22485L17.9485 8.13549H18.4366L18.206 9.21472C18.1952 9.26369 18.1899 9.31436 18.1899 9.36503C18.1899 9.47988 18.2239 9.56939 18.2936 9.63019C18.3615 9.69099 18.4653 9.72308 18.6029 9.72308C18.78 9.72308 18.9266 9.67579 19.0428 9.58121C19.159 9.48663 19.2377 9.34476 19.2771 9.1556L19.4952 8.13549H19.9816V8.13718Z" fill="var(--fill-0, white)"/>
<path id="Vector_10" d="M23.7426 8.28459C23.8767 8.39775 23.9429 8.55988 23.9429 8.771C23.9429 8.85038 23.9339 8.92976 23.916 9.01421L23.6854 10.1036H23.1972L23.4279 9.02434C23.4386 8.97536 23.444 8.923 23.444 8.86896C23.444 8.63251 23.3116 8.51597 23.047 8.51597C22.7019 8.51597 22.4891 8.70344 22.4068 9.08007L22.1887 10.1036H21.7005L21.9312 9.02434C21.9419 8.97536 21.9473 8.923 21.9473 8.86896C21.9473 8.63251 21.815 8.51597 21.5503 8.51597C21.2052 8.51597 20.9924 8.70513 20.9102 9.08345L20.692 10.1036H20.2056L20.6187 8.13765H21.0818L21.0389 8.35046C21.2159 8.19339 21.443 8.11401 21.722 8.11401C21.8722 8.11401 22.0045 8.14103 22.1154 8.19676C22.2262 8.2525 22.3121 8.33188 22.3693 8.43828C22.5821 8.2221 22.8574 8.11401 23.1918 8.11401C23.4243 8.11569 23.6085 8.17143 23.7426 8.28459Z" fill="var(--fill-0, white)"/>
</g>
</g>
<defs>
<clipPath id="clip0_0_52">
<rect width="25" height="11" fill="white"/>
</clipPath>
</defs>
</svg>
