<svg preserveAspectRatio="xMidYMid meet" width="25" height="25" overflow="visible" style="display: block;" viewBox="0 0 25 17" fill="none" xmlns="http://www.w3.org/2000/svg">
<g id="White Icons">
<path id="discord" d="M9.04548 0.0120561C8.70815 0.0120561 5.97201 0.0834341 3.08596 2.1296C3.08596 2.1296 0 7.41157 0 13.9189C0 13.9189 1.7991 16.8572 6.53423 17C6.53423 17 7.32134 16.1078 7.97101 15.3226C5.24738 14.5494 4.22289 12.9315 4.22289 12.9315C4.22289 12.9315 4.43528 13.0742 4.82259 13.2765C4.84758 13.2765 4.86007 13.3002 4.91004 13.3121C4.97251 13.3478 5.03498 13.3716 5.09745 13.4192C5.63468 13.7047 6.17191 13.9308 6.65917 14.1092C7.53373 14.4542 8.58321 14.7635 9.8076 14.9895C11.4193 15.275 13.2934 15.3821 15.3548 15.0133C16.3668 14.8349 17.3913 14.5613 18.4658 14.133C19.2154 13.8713 20.0525 13.4787 20.927 12.9315C20.927 12.9315 19.8526 14.585 17.054 15.3345C17.6912 16.084 18.4658 16.9643 18.4658 16.9643C23.2009 16.8216 25 13.8832 25 13.907C25 7.39967 21.914 2.1177 21.914 2.1177C18.8531 -0.0593219 15.917 0.000159686 15.917 0.000159686L15.6172 0.32136C19.2529 1.35634 20.952 2.89097 20.952 2.89097C18.7281 1.74892 16.5417 1.1779 14.5052 0.951865C12.9685 0.785317 11.4818 0.832902 10.1824 0.987554C10.0575 0.987554 9.94503 1.01135 9.82009 1.02324C9.07046 1.10652 7.24638 1.34444 4.96002 2.30805C4.14793 2.66494 3.68566 2.91476 3.68566 2.91476C3.68566 2.91476 5.44728 1.30875 9.29535 0.261879L9.08296 0.0120561C9.08296 0.0120561 9.07046 0.0120561 9.04548 0.0120561ZM8.49575 7.54243C9.72014 7.54243 10.7071 8.54172 10.6822 9.79083C10.6822 11.0399 9.72014 12.0392 8.49575 12.0392C7.29635 12.0392 6.30935 11.0399 6.30935 9.79083C6.32184 8.54172 7.28386 7.54243 8.49575 7.54243ZM16.3168 7.54243C17.5162 7.54243 18.5032 8.54172 18.5032 9.79083C18.5032 11.0399 17.5412 12.0392 16.3168 12.0392C15.1174 12.0392 14.1304 11.0399 14.1304 9.79083C14.1304 8.54172 15.0925 7.54243 16.3168 7.54243Z" fill="var(--fill-0, white)"/>
</g>
</svg>
