<svg preserveAspectRatio="xMidYMid meet" width="25" height="25" overflow="visible" style="display: block;" viewBox="0 0 25 25" fill="none" xmlns="http://www.w3.org/2000/svg">
<g id="White Icons">
<path id="facebook" d="M23.625 0H1.3875C0.625 0 0 0.625 0 1.3875V23.625C0.0125 24.3875 0.625 25 1.3875 25H13.3625V15.3375H10.1125V11.55H13.3625V8.775C13.3625 5.55 15.3375 3.7875 18.225 3.7875C19.2 3.7875 20.175 3.8375 21.1375 3.9375V7.3H19.1375C17.575 7.3 17.2625 8.05 17.2625 9.1375V11.5625H21.0125L20.525 15.35H17.2625V25H23.625C24.3875 25 25 24.375 25 23.625V1.3875C25 0.625 24.3875 0 23.625 0Z" fill="var(--fill-0, white)"/>
</g>
</svg>
