<svg preserveAspectRatio="xMidYMid meet" width="25" height="25" overflow="visible" style="display: block;" viewBox="0 0 25 23.75" fill="none" xmlns="http://www.w3.org/2000/svg">
<g id="Group-14">
<path id="Shape" fill-rule="evenodd" clip-rule="evenodd" d="M12.5 0C5.59735 0 0 5.45085 0 12.1755C0 17.555 3.58163 22.1187 8.54826 23.7289C9.17297 23.8416 9.40232 23.4645 9.40232 23.1432C9.40232 22.853 9.39073 21.8937 9.38535 20.8763C5.90784 21.6129 5.17404 19.4398 5.17404 19.4398C4.60543 18.0327 3.78614 17.6582 3.78614 17.6582C2.65181 16.9026 3.87163 16.9181 3.87163 16.9181C5.12685 17.004 5.78778 18.173 5.78778 18.173C6.90265 20.0342 8.712 19.496 9.4253 19.1851C9.53749 18.3984 9.86144 17.8611 10.2189 17.557C7.4425 17.2494 4.52366 16.2052 4.52366 11.5398C4.52366 10.2105 5.01196 9.1244 5.81179 8.27174C5.68201 7.96507 5.25415 6.72671 5.93288 5.04942C5.93288 5.04942 6.98255 4.72239 9.37107 6.29766C10.3682 6.02789 11.4375 5.8926 12.4998 5.88776C13.5621 5.8924 14.6323 6.02769 15.6312 6.29766C18.017 4.72239 19.0653 5.04942 19.0653 5.04942C19.7456 6.72651 19.3178 7.96487 19.188 8.27174C19.9895 9.1244 20.4745 10.2105 20.4745 11.5398C20.4745 16.2162 17.5503 17.2459 14.7668 17.5473C15.2151 17.9252 15.6147 18.6661 15.6147 19.8021C15.6147 21.4312 15.6004 22.7423 15.6004 23.1434C15.6004 23.4674 15.8254 23.847 16.4588 23.7275C21.4229 22.1157 25 17.5534 25 12.1757C24.9998 5.45085 19.4033 0 12.5 0Z" fill="var(--fill-0, white)"/>
</g>
</svg>
