<svg preserveAspectRatio="none" width="100%" height="100%" overflow="visible" style="display: block;" viewBox="0 0 25 25" fill="none" xmlns="http://www.w3.org/2000/svg">
<g id="instagram" clip-path="url(#clip0_0_44)">
<path id="Vector" d="M12.5019 2.33038C15.8129 2.33038 16.2098 2.34278 17.5119 2.40479C18.7147 2.45439 19.372 2.6652 19.8184 2.82641C20.4012 3.04963 20.8105 3.32244 21.2445 3.75647C21.6785 4.1905 21.9513 4.59973 22.1746 5.18256C22.3482 5.61659 22.5466 6.27383 22.5962 7.48911C22.6582 8.79119 22.6706 9.18802 22.6706 12.499C22.6706 15.81 22.6582 16.2069 22.5962 17.509C22.5466 18.7118 22.3358 19.3691 22.1746 19.8155C21.9513 20.3983 21.6785 20.8076 21.2445 21.2416C20.8105 21.6756 20.4012 21.9484 19.8184 22.1717C19.3844 22.3453 18.7271 22.5437 17.5119 22.5933C16.2098 22.6553 15.8129 22.6677 12.5019 22.6677C9.19093 22.6677 8.7941 22.6553 7.49202 22.5933C6.28914 22.5437 5.6319 22.3329 5.18547 22.1717C4.60263 21.9484 4.19341 21.6756 3.75938 21.2416C3.32535 20.8076 3.06493 20.3859 2.82932 19.8155C2.65571 19.3815 2.45729 18.7242 2.40769 17.509C2.34569 16.2069 2.33329 15.81 2.33329 12.499C2.33329 9.18802 2.34569 8.79119 2.40769 7.48911C2.45729 6.28623 2.66811 5.62899 2.82932 5.18256C3.05253 4.59973 3.32535 4.1905 3.75938 3.75647C4.19341 3.32244 4.61503 3.06203 5.18547 2.82641C5.6195 2.6528 6.27674 2.45439 7.49202 2.40479C8.7941 2.34278 9.19093 2.33038 12.5019 2.33038ZM12.5019 0.0982375C9.12892 0.0982375 8.70729 0.110638 7.39281 0.172642C6.07833 0.234646 5.17307 0.44546 4.37942 0.743079C3.56097 1.0655 2.86652 1.48713 2.18448 2.16917C1.49003 2.86361 1.06841 3.54566 0.758386 4.36411C0.448366 5.15776 0.237553 6.05062 0.18795 7.3775C0.113545 8.70439 0.101144 9.12602 0.101144 12.499C0.101144 15.872 0.113545 16.2937 0.175549 17.6082C0.237553 18.9226 0.448366 19.8279 0.745985 20.6216C1.06841 21.44 1.49003 22.1344 2.17208 22.8165C2.86652 23.5109 3.54856 23.9326 4.36702 24.2426C5.16067 24.5526 6.05352 24.7634 7.38041 24.813C8.70729 24.875 9.12892 24.8874 12.4895 24.8874C15.8502 24.8874 16.2842 24.875 17.5987 24.813C18.9131 24.751 19.8184 24.5402 20.6121 24.2426C21.4305 23.9202 22.125 23.4985 22.807 22.8165C23.5014 22.122 23.9231 21.44 24.2331 20.6216C24.5431 19.8279 24.7539 18.935 24.8035 17.6082C24.8655 16.2813 24.8779 15.8596 24.8779 12.499C24.8779 9.13842 24.8655 8.70439 24.8035 7.3899C24.7415 6.07542 24.5307 5.17016 24.2331 4.37651C23.9107 3.55806 23.489 2.86361 22.807 2.18157C22.1126 1.48713 21.4305 1.0655 20.6121 0.75548C19.8184 0.44546 18.9255 0.234646 17.5987 0.185043C16.2966 0.110638 15.875 0.0982375 12.5019 0.0982375Z" fill="var(--fill-0, white)"/>
<path id="Vector_2" d="M12.4999 6.12597C8.97808 6.12597 6.1259 8.97815 6.1259 12.5C6.1259 16.0218 8.97808 18.874 12.4999 18.874C16.0217 18.874 18.8739 16.0218 18.8739 12.5C18.8739 8.97815 16.0217 6.12597 12.4999 6.12597ZM12.4999 16.6294C10.2182 16.6294 8.37044 14.7817 8.37044 12.5C8.37044 10.2182 10.2182 8.37051 12.4999 8.37051C14.7816 8.37051 16.6294 10.2182 16.6294 12.5C16.6294 14.7817 14.7816 16.6294 12.4999 16.6294Z" fill="var(--fill-0, white)"/>
<path id="Vector_3" d="M19.1209 7.36578C19.9427 7.36578 20.609 6.69954 20.609 5.87769C20.609 5.05583 19.9427 4.38959 19.1209 4.38959C18.299 4.38959 17.6328 5.05583 17.6328 5.87769C17.6328 6.69954 18.299 7.36578 19.1209 7.36578Z" fill="var(--fill-0, white)"/>
</g>
<defs>
<clipPath id="clip0_0_44">
<rect width="25" height="25" fill="white"/>
</clipPath>
</defs>
</svg>
