<svg preserveAspectRatio="xMidYMid meet" width="25" height="25" overflow="visible" style="display: block;" viewBox="0 0 25 25" fill="none" xmlns="http://www.w3.org/2000/svg">
<g id="White Icons">
<path id="linkedin" d="M23.15 0H1.85C0.825 0 0 0.8125 0 1.8V23.2C0 24.2 0.825 25 1.85 25H23.15C24.175 25 25 24.1875 25 23.2V1.8C25 0.8125 24.175 0 23.15 0ZM7.4125 21.3H3.7125V9.375H7.425L7.4125 21.3ZM5.5625 7.7375C4.375 7.7375 3.4125 6.775 3.4125 5.5875C3.4125 4.4 4.375 3.4375 5.5625 3.4375C6.75 3.4375 7.7125 4.4 7.7125 5.5875C7.7125 6.775 6.75 7.7375 5.5625 7.7375ZM21.3 21.3H17.6V15.5C17.6 14.1125 17.575 12.3375 15.675 12.3375C13.75 12.3375 13.45 13.85 13.45 15.4V21.3H9.7375V9.375H13.2875V11H13.3375C13.8375 10.0625 15.0375 9.075 16.85 9.075C20.6 9.075 21.3 11.55 21.3 14.7625V21.3Z" fill="var(--fill-0, white)"/>
</g>
</svg>
