<svg preserveAspectRatio="xMidYMid meet" width="25" height="25" overflow="visible" style="display: block;" viewBox="0 0 121.187 32" fill="none" xmlns="http://www.w3.org/2000/svg">
<g id="Logo">
<path id="Vector" d="M25.7975 0H11.4541L10.2621 6.64642L23.2116 6.66663C29.5955 6.66663 31.4743 8.98985 31.4136 12.8282C31.3934 14.7878 30.5248 18.1211 30.1611 19.1918C29.1712 22.0605 27.1712 25.3534 19.5955 25.3332H7.00961L5.83789 31.9796H20.1409C25.1914 31.9796 27.3328 31.3938 29.6157 30.3433C34.646 28.02 37.6561 23.0504 38.848 16.5454C40.646 6.88885 38.4035 0 25.7975 0Z" fill="var(--fill-0, white)"/>
<path id="Vector_2" d="M70.1602 32L71.1703 26.2223H83.4127C84.3824 26.2223 85.049 25.6364 85.1905 24.6869C85.3925 23.7172 84.9076 23.1516 83.9379 23.1516H78.0794C73.4531 23.1516 71.2511 20.4647 72.0591 15.8385C72.8874 11.2122 76.0591 8.52539 80.6854 8.52539H93.9985L92.948 14.3031H81.2107C80.241 14.3031 79.5743 14.889 79.4329 15.8385C79.2309 16.8082 79.7157 17.3738 80.6854 17.3738H86.544C91.1703 17.3738 93.3723 20.0607 92.5642 24.6869C91.7561 29.3131 88.6248 32 83.9985 32H70.1602Z" fill="var(--fill-0, white)"/>
<path id="Vector_3" d="M51.4959 31.9997C43.8797 31.9997 40.4656 27.8583 41.8191 20.2422C43.1121 12.6261 48.0212 8.50488 55.6373 8.50488H69.1121L64.9707 31.9997H51.4959ZM60.2636 14.2826H56.7888C52.6474 14.2826 50.203 16.121 49.4757 20.2422C48.708 24.3836 50.2434 26.222 54.3848 26.222H58.1828L60.2636 14.2826Z" fill="var(--fill-0, white)"/>
<path id="Vector_4" d="M110.708 31.9998L113.112 18.3231C113.536 15.6363 112.445 14.4646 109.759 14.4646H105.92L102.829 31.9796H95.0312L100.668 0H108.466L106.971 8.505H112.809C119.637 8.505 122.102 11.4949 120.89 18.3231L118.486 31.9998H110.708Z" fill="var(--fill-0, white)"/>
<path id="Vector_5" d="M5.27273 12.6463C1.51515 12.6463 0.969697 15.0908 0.626263 16.5655C0.161616 18.5049 0 19.2928 0 19.2928H14.6869C18.4444 19.2928 18.9899 16.8483 19.3333 15.3736C19.798 13.4342 19.9596 12.6463 19.9596 12.6463H5.27273Z" fill="var(--fill-0, white)"/>
</g>
</svg>
