<svg preserveAspectRatio="none" width="100%" height="100%" overflow="visible" style="display: block;" viewBox="0 0 25 23" fill="none" xmlns="http://www.w3.org/2000/svg">
<g id="reddit">
<path id="Vector" d="M24.6431 11.56C24.5853 10.0387 23.3468 8.84073 21.8885 8.90063C21.2288 8.92459 20.6153 9.20011 20.1408 9.67928C18.069 8.2298 15.6385 7.41521 13.1269 7.35532L14.3075 1.47355L18.2079 2.32407C18.3121 3.36626 19.2149 4.10896 20.2103 4.00115C21.2172 3.89334 21.9348 2.95896 21.8306 1.92876C21.7265 0.886568 20.8237 0.14386 19.8283 0.251672C19.2496 0.311568 18.7403 0.670943 18.4394 1.17407L13.9718 0.251672C13.6593 0.179797 13.37 0.383443 13.3005 0.706881L11.9579 7.24751C9.42322 7.28344 6.94636 8.09803 4.85145 9.57146C3.77507 8.52928 2.09683 8.58917 1.10145 9.67928C0.0945103 10.7933 0.152381 12.5303 1.20562 13.5605C1.42553 13.7642 1.65701 13.9319 1.91164 14.0517C1.88849 14.3392 1.88849 14.6027 1.91164 14.8782C1.91164 19.0949 6.66858 22.5329 12.5251 22.5329C18.3815 22.5329 23.1385 19.1069 23.1385 14.8782C23.1616 14.5907 23.1616 14.3272 23.1385 14.0517C24.076 13.5965 24.6547 12.6262 24.6431 11.56ZM6.42553 13.4527C6.42553 12.4105 7.24729 11.572 8.24266 11.572C9.23803 11.572 10.0714 12.4105 10.0714 13.4527C10.0714 14.4949 9.2496 15.3334 8.25423 15.3334C7.25886 15.3334 6.42553 14.4829 6.42553 13.4527ZM17.0042 18.6277C15.7079 19.622 14.1223 20.1491 12.5019 20.0772C10.8815 20.1491 9.2959 19.622 7.9996 18.6277C7.83757 18.4001 7.84914 18.0767 8.06905 17.909C8.25423 17.7532 8.50886 17.7532 8.68247 17.909C9.77044 18.7355 11.1246 19.1548 12.4672 19.0949C13.8329 19.1668 15.164 18.7715 16.2751 17.9449C16.4718 17.7413 16.8075 17.7413 16.9811 17.9689C17.1778 18.1725 17.1778 18.5199 16.9579 18.6996L17.0042 18.6277ZM16.6802 15.4053C15.6732 15.4053 14.863 14.5548 14.863 13.5246C14.863 12.4824 15.6848 11.6439 16.6802 11.6439C17.6871 11.6439 18.4973 12.4944 18.4973 13.5246C18.532 14.5668 17.745 15.4413 16.7496 15.4892C16.7149 15.4892 16.6917 15.4892 16.657 15.4892L16.6802 15.4053Z" fill="var(--fill-0, white)"/>
</g>
</svg>
