<svg preserveAspectRatio="xMidYMid meet" width="25" height="25" overflow="visible" style="display: block;" viewBox="0 0 25 17" fill="none" xmlns="http://www.w3.org/2000/svg">
<g id="youtube" clip-path="url(#clip0_0_68)">
<path id="Vector" d="M24.3885 2.4625C24.101 1.3875 23.2635 0.55 22.1885 0.2625C20.251 -0.25 12.4885 -0.25 12.4885 -0.25C12.4885 -0.25 4.72598 -0.25 2.78848 0.275C1.71348 0.5625 0.875977 1.4 0.588477 2.475C0.0634766 4.4 0.0634766 8.45 0.0634766 8.45C0.0634766 8.45 0.0634766 12.4875 0.588477 14.425C0.875977 15.5 1.71348 16.3375 2.78848 16.625C4.72598 17.15 12.4885 17.15 12.4885 17.15C12.4885 17.15 20.251 17.15 22.1885 16.625C23.2635 16.3375 24.101 15.5 24.3885 14.425C24.9135 12.4875 24.9135 8.45 24.9135 8.45C24.9135 8.45 24.901 4.4 24.3885 2.4625ZM10.001 12.175V4.7125L16.451 8.45L10.001 12.175Z" fill="var(--fill-0, white)"/>
</g>
<defs>
<clipPath id="clip0_0_68">
<rect width="25" height="17" fill="white"/>
</clipPath>
</defs>
</svg>
