<svg preserveAspectRatio="none" width="100%" height="100%" overflow="visible" style="display: block;" viewBox="0 0 36.4947 29.6258" fill="none" xmlns="http://www.w3.org/2000/svg">
<g id="Logo">
<path id="Vector" d="M23.9044 0H10.6132L9.51267 6.15425L21.5067 6.1711C27.4139 6.1711 29.1602 8.3161 29.1097 11.8705C29.0816 13.6955 28.2955 16.7782 27.953 17.7777C27.0433 20.4393 25.1734 23.4827 18.1657 23.4715L6.50854 23.4659L5.40234 29.6258H18.6598C23.3373 29.6258 25.325 29.0811 27.4307 28.1097C32.1026 25.9534 34.8821 21.3434 35.9939 15.3295C37.6504 6.37324 35.584 0 23.9044 0Z" fill="var(--fill-0, #4C7EFF)"/>
<path id="Vector_2" d="M4.8796 11.7242C1.39818 11.7242 0.898431 13.9927 0.57275 15.3629C0.14038 17.1597 0 17.8841 0 17.8841H13.6056C17.087 17.8841 17.5868 15.6155 17.9125 14.2454C18.3448 12.4486 18.4852 11.7242 18.4852 11.7242H4.8796Z" fill="var(--fill-0, #4C7EFF)"/>
</g>
</svg>
