<svg width="79" height="21" viewBox="0 0 79 21" fill="none" xmlns="http://www.w3.org/2000/svg">
<path d="M16.8174 0H7.46706L6.69006 4.33278L15.1317 4.34595C19.2933 4.34595 20.5181 5.86044 20.4786 8.36265C20.4654 9.6401 19.8991 11.8131 19.662 12.5111C19.0167 14.3811 17.713 16.5278 12.7744 16.5146H4.56976L3.80593 20.8474H13.13C16.4223 20.8474 17.8183 20.4655 19.3065 19.7806C22.5857 18.2661 24.5479 15.0264 25.3249 10.7858C26.497 4.49081 25.0352 0 16.8174 0Z" fill="#4C7EFF"/>
<path d="M45.7378 20.8605L46.3963 17.0941H54.3771C55.0092 17.0941 55.4438 16.7121 55.536 16.0932C55.6677 15.461 55.3516 15.0923 54.7195 15.0923H50.9003C47.8845 15.0923 46.449 13.3407 46.9758 10.3249C47.5157 7.3091 49.5834 5.55755 52.5992 5.55755H61.2779L60.5931 9.32404H52.9416C52.3094 9.32404 51.8748 9.70595 51.7827 10.3249C51.651 10.9571 51.967 11.3258 52.5992 11.3258H56.4183C59.4342 11.3258 60.8696 13.0774 60.3429 16.0932C59.8161 19.109 57.7748 20.8605 54.759 20.8605H45.7378Z" fill="#4C7EFF"/>
<path d="M33.5692 20.8605C28.6043 20.8605 26.3787 18.1608 27.261 13.1959C28.1039 8.23096 31.3041 5.54438 36.269 5.54438H45.0531L42.3533 20.8605H33.5692ZM39.2848 9.31087H37.0197C34.3199 9.31087 32.7264 10.5093 32.2523 13.1959C31.7518 15.8956 32.7527 17.0941 35.4525 17.0941H37.9284L39.2848 9.31087Z" fill="#4C7EFF"/>
<path d="M72.1691 20.8605L73.7363 11.9448C74.0129 10.1932 73.3017 9.42938 71.5502 9.42938H69.048L67.033 20.8474H61.9496L65.6239 0H70.7073L69.7328 5.54437H73.5388C77.9901 5.54437 79.5968 7.49346 78.8066 11.9448L77.2394 20.8605H72.1691Z" fill="#4C7EFF"/>
<path d="M3.43725 8.24414C0.987715 8.24414 0.632138 9.83765 0.408256 10.799C0.105356 12.0633 0 12.5769 0 12.5769H9.57425C12.0238 12.5769 12.3794 10.9834 12.6032 10.022C12.9061 8.75775 13.0115 8.24414 13.0115 8.24414H3.43725Z" fill="#4C7EFF"/>
</svg>
