<svg preserveAspectRatio="none" width="100%" height="100%" overflow="visible" style="display: block;" viewBox="0 0 60.0003 54.0003" fill="none" xmlns="http://www.w3.org/2000/svg">
<g id="White Icons">
<path id="community" d="M1.00027 18.5556C2.34 14.8011 5.95498 12.1111 10.2043 12.1111C14.4535 12.1111 18.0685 14.8011 19.4082 18.5556M1.00027 53C2.34 49.2455 5.95498 46.5556 10.2043 46.5556C14.4535 46.5556 18.0685 49.2455 19.4082 53M34.9273 15.7222H53.7953C55.617 15.7222 56.5282 15.7222 57.2241 15.371C57.836 15.0621 58.3337 14.5691 58.6457 13.9629C59.0003 13.2736 59.0003 12.3713 59.0003 10.5667V7.98889C59.0003 6.18428 59.0003 5.28196 58.6457 4.5927C58.3337 3.98641 57.836 3.49347 57.2241 3.18452C56.5282 2.83333 55.617 2.83333 53.7953 2.83333H34.9273C33.1052 2.83333 32.1944 2.83333 31.4985 3.18452C30.8863 3.49347 30.3886 3.98641 30.0769 4.5927C29.7223 5.28196 29.7223 6.18428 29.7223 7.98889V10.5667C29.7223 12.3713 29.7223 13.2736 30.0769 13.9629C30.3886 14.5691 30.8863 15.0621 31.4985 15.371C32.1944 15.7222 33.1052 15.7222 34.9273 15.7222ZM34.9273 51.1667H53.7953C55.617 51.1667 56.5282 51.1667 57.2241 50.8154C57.836 50.5064 58.3337 50.0138 58.6457 49.4073C59.0003 48.7181 59.0003 47.8159 59.0003 46.0111V43.4333C59.0003 41.6286 59.0003 40.7263 58.6457 40.0371C58.3337 39.4307 57.836 38.938 57.2241 38.629C56.5282 38.2778 55.617 38.2778 53.7953 38.2778H34.9273C33.1052 38.2778 32.1944 38.2778 31.4985 38.629C30.8863 38.938 30.3886 39.4307 30.0769 40.0371C29.7223 40.7263 29.7223 41.6286 29.7223 43.4333V46.0111C29.7223 47.8159 29.7223 48.7181 30.0769 49.4073C30.3886 50.0138 30.8863 50.5064 31.4985 50.8154C32.1944 51.1667 33.1052 51.1667 34.9273 51.1667ZM13.4567 4.22222C13.4567 6.00179 12.0003 7.44444 10.2036 7.44444C8.40697 7.44444 6.95053 6.00179 6.95053 4.22222C6.95053 2.44265 8.40697 1 10.2036 1C12.0003 1 13.4567 2.44265 13.4567 4.22222ZM13.4567 38.6667C13.4567 40.4463 12.0003 41.8889 10.2036 41.8889C8.40697 41.8889 6.95053 40.4463 6.95053 38.6667C6.95053 36.887 8.40697 35.4444 10.2036 35.4444C12.0003 35.4444 13.4567 36.887 13.4567 38.6667Z" stroke="var(--stroke-0, white)" stroke-width="2" stroke-linecap="round" stroke-linejoin="round"/>
</g>
</svg>
