<svg preserveAspectRatio="none" width="100%" height="100%" overflow="visible" style="display: block;" viewBox="0 0 135.001 109.595" fill="none" xmlns="http://www.w3.org/2000/svg">
<g id="Logo" opacity="0.1">
<path id="Vector" d="M88.4117 2.42293e-05H39.2566L35.1719 22.7775L79.55 22.8468C101.427 22.8468 107.866 30.8085 107.658 43.9627C107.589 50.6783 104.612 62.1016 103.366 65.771C99.9736 75.602 93.1196 86.8869 67.1573 86.8176H24.0254L20.01 109.595H69.0266C86.3348 109.595 93.6734 107.587 101.497 103.987C118.736 96.0256 129.051 78.9944 133.136 56.7015C139.298 23.6083 131.613 2.42293e-05 88.4117 2.42293e-05Z" fill="var(--fill-0, white)"/>
<path id="Vector_2" d="M18.0697 43.3397C5.19244 43.3397 3.32316 51.7168 2.14621 56.7708C0.553861 63.4171 0 66.1172 0 66.1172H50.3321C63.2093 66.1172 65.0786 57.7401 66.2556 52.6861C67.8479 46.0398 68.4018 43.3397 68.4018 43.3397H18.0697Z" fill="var(--fill-0, white)"/>
</g>
</svg>
