<svg preserveAspectRatio="none" width="100%" height="100%" overflow="visible" style="display: block;" viewBox="0 0 34.0367 27.6315" fill="none" xmlns="http://www.w3.org/2000/svg">
<g id="Logo">
<path id="Vector" d="M22.2906 0H9.89745L8.8676 5.74274L20.0563 5.76019C25.5722 5.76019 27.1955 7.76753 27.1431 11.084C27.1257 12.7772 26.3751 15.6572 26.0609 16.5824C25.2056 19.061 23.4775 21.9062 16.9319 21.8887H6.05732L5.04492 27.6315H17.4032C21.7669 27.6315 23.6172 27.1253 25.5896 26.2176C29.9359 24.2103 32.5368 19.9163 33.5666 14.2957C35.1201 5.9522 33.1826 0 22.2906 0Z" fill="var(--fill-0, white)"/>
<path id="Vector_2" d="M4.55579 10.9269C1.30913 10.9269 0.837846 13.039 0.541109 14.3132C0.139641 15.9889 0 16.6697 0 16.6697H12.6899C15.9365 16.6697 16.4078 14.5576 16.7046 13.2834C17.106 11.6077 17.2457 10.9269 17.2457 10.9269H4.55579Z" fill="var(--fill-0, white)"/>
</g>
</svg>
