<svg preserveAspectRatio="none" width="100%" height="100%" overflow="visible" style="display: block;" viewBox="0 0 307.167 93.8105" fill="none" xmlns="http://www.w3.org/2000/svg">
<path id="Vector 35" d="M0.5 74.1053C0.223858 74.1053 0 74.3292 0 74.6053C0 74.8814 0.223858 75.1053 0.5 75.1053V74.6053V74.1053ZM5.66129 74.6053L5.87735 74.1544L5.7749 74.1053H5.66129V74.6053ZM7.20968 75.3472L6.99362 75.7981L7.40532 75.9954L7.63913 75.6033L7.20968 75.3472ZM8.75806 72.7505V72.2505H8.47406L8.32861 72.4944L8.75806 72.7505ZM12.371 72.7505V73.2505H12.871V72.7505H12.371ZM12.371 65.3311L12.7051 64.9592L11.871 64.2097V65.3311H12.371ZM16.5 69.0408L16.1658 69.4127L16.5871 69.7912L16.9105 69.3263L16.5 69.0408ZM18.0484 66.815L18.4588 66.5294L18.0484 65.9394L17.6379 66.5294L18.0484 66.815ZM20.1129 69.7827L20.589 69.6299L20.5661 69.5586L20.5234 69.4972L20.1129 69.7827ZM21.6613 74.6053L21.1852 74.7582L21.5376 75.8557L22.0982 74.8484L21.6613 74.6053ZM24.7581 69.0408L25.195 69.2839L25.2581 69.1705V69.0408H24.7581ZM24.7581 51.6053L24.5208 51.1652L24.2581 51.3068V51.6053H24.7581ZM26.8226 50.4924L27.2762 50.282L27.0528 49.8003L26.5853 50.0523L26.8226 50.4924ZM28.8871 54.944L28.4335 55.1544L28.5678 55.444H28.8871V54.944ZM32.5 54.944L32.9975 54.8946L32.9528 54.444H32.5V54.944ZM33.5323 65.3311L33.0347 65.3806L34.0217 65.4333L33.5323 65.3311ZM35.0806 57.9118L34.6318 57.6914L34.6041 57.7479L34.5912 57.8096L35.0806 57.9118ZM38.1774 51.6053L38.6402 51.4159L38.2189 50.3865L37.7286 51.3849L38.1774 51.6053ZM40.7581 57.9118L41.2554 57.8599L41.2479 57.7887L41.2208 57.7224L40.7581 57.9118ZM42.3065 72.7505L41.8092 72.8024L42.0066 74.6942L42.765 72.9498L42.3065 72.7505ZM44.8871 66.815L44.4502 66.5718L44.4383 66.5932L44.4286 66.6156L44.8871 66.815ZM46.9516 63.1053L47.4493 63.1531L46.5147 62.8622L46.9516 63.1053ZM45.9194 73.8634L45.4216 73.8156L45.2899 75.1884L46.2708 74.219L45.9194 73.8634ZM50.0484 69.7827L50.3998 70.1384L50.4712 70.0679L50.5098 69.9753L50.0484 69.7827ZM51.5968 66.073L52.0293 65.8223L51.5237 64.95L51.1354 65.8805L51.5968 66.073ZM54.1774 70.5247L53.7448 70.7754L53.8324 70.9264L53.9949 70.9902L54.1774 70.5247ZM59.8548 72.7505L59.6723 73.216L60.1965 73.4215L60.3386 72.8767L59.8548 72.7505ZM61.4032 66.815L61.8779 66.6577L61.3462 65.0528L60.9194 66.6888L61.4032 66.815ZM63.9839 74.6053L63.5092 74.7625L63.982 76.1896L64.4581 74.7637L63.9839 74.6053ZM67.0806 65.3311L67.5421 65.1385L67.0286 63.9083L66.6064 65.1727L67.0806 65.3311ZM68.629 69.0408L68.1676 69.2334L68.8279 70.8154L69.1216 69.1265L68.629 69.0408ZM69.6613 63.1053L70.0495 62.7902L69.357 61.9369L69.1687 63.0196L69.6613 63.1053ZM73.2742 67.5569L72.886 67.872L73.5683 68.7127L73.7658 67.6481L73.2742 67.5569ZM74.3064 61.9924L74.729 61.7252L74.0474 60.6474L73.8148 61.9012L74.3064 61.9924ZM76.8871 66.073L76.4645 66.3403L76.5414 66.4618L76.671 66.524L76.8871 66.073ZM78.4355 66.815H78.9355V66.5001L78.6515 66.3641L78.4355 66.815ZM78.4355 69.0408H77.9355V69.627L78.5143 69.5345L78.4355 69.0408ZM83.0806 68.2988L83.1595 68.7926L83.334 68.7647L83.4522 68.6334L83.0806 68.2988ZM88.7581 61.9924L89.247 61.8877L89.0419 60.9298L88.3865 61.6579L88.7581 61.9924ZM90.8226 71.6376L90.3337 71.7422L90.3389 71.7666L90.3465 71.7904L90.8226 71.6376ZM92.371 76.4601L92.8642 76.3784L92.8582 76.3422L92.847 76.3073L92.371 76.4601ZM94.9516 92.0408L94.4583 92.1225L94.7379 93.8105L95.4113 92.2376L94.9516 92.0408ZM97.0161 87.2182L97.1852 86.7477L96.7419 86.5883L96.5565 87.0214L97.0161 87.2182ZM100.113 88.3311L99.9438 88.8016L100.41 88.969L100.582 88.505L100.113 88.3311ZM104.242 77.2021L104.73 77.0948L104.365 75.4326L103.773 77.0282L104.242 77.2021ZM105.79 84.2505L105.302 84.3577L105.569 85.5751L106.217 84.5104L105.79 84.2505ZM109.403 78.315L109.897 78.2386L109.688 76.8853L108.976 78.055L109.403 78.315ZM110.435 84.9924L109.941 85.0688L110.194 86.7019L110.889 85.2028L110.435 84.9924ZM113.532 78.315L114.026 78.2342L113.763 76.6291L113.079 78.1046L113.532 78.315ZM115.597 90.9279L115.103 91.0086L115.288 92.1342L115.991 91.236L115.597 90.9279ZM120.242 84.9924L120.636 85.3006L120.671 85.2551L120.696 85.2028L120.242 84.9924ZM123.855 77.2021L123.937 76.7088L123.561 76.6466L123.401 76.9917L123.855 77.2021ZM130.565 78.315L130.483 78.8082L130.926 78.8817L131.046 78.449L130.565 78.315ZM131.597 74.6053L131.279 74.2189L131.157 74.3192L131.115 74.4713L131.597 74.6053ZM135.21 71.6376L135.527 72.0239L135.615 71.9515L135.663 71.8479L135.21 71.6376ZM137.79 66.073L137.444 65.712L137.376 65.7772L137.337 65.8627L137.79 66.073ZM140.887 63.1053L141.26 62.772L140.915 62.3862L140.541 62.7443L140.887 63.1053ZM145.532 68.2988L145.16 68.6322L145.41 68.912L145.748 68.7498L145.532 68.2988ZM148.629 66.815L149.083 66.6046L148.87 66.1453L148.413 66.3641L148.629 66.815ZM149.661 69.0408L149.208 69.2511L149.462 69.7997L149.953 69.4468L149.661 69.0408ZM153.79 66.073L153.553 65.6329L153.525 65.6482L153.498 65.667L153.79 66.073ZM157.919 63.8472L158.157 64.2874L158.237 64.2441L158.297 64.1753L157.919 63.8472ZM163.081 57.9118L163.279 57.4526L162.943 57.3079L162.703 57.5837L163.081 57.9118ZM168.242 60.1376L168.044 60.5967L168.612 60.8416L168.732 60.235L168.242 60.1376ZM169.274 54.944L169.685 54.6585L169.013 53.6931L168.784 54.8465L169.274 54.944ZM172.887 60.1376L172.477 60.4231L172.887 60.1376ZM175.468 63.8472L175.057 64.1328L175.316 64.5048L175.712 64.2837L175.468 63.8472ZM180.113 61.2505L180.405 60.8445L180.146 60.6589L179.869 60.814L180.113 61.2505ZM183.726 63.8472L184.205 63.7044L184.156 63.5408L184.018 63.4412L183.726 63.8472ZM185.274 69.0408L184.795 69.1836L185.066 70.0912L185.662 69.3559L185.274 69.0408ZM188.887 64.5892L189.33 64.3579L188.978 63.6832L188.499 64.2741L188.887 64.5892ZM190.435 67.5569L189.992 67.7882L190.421 68.6106L190.872 67.8001L190.435 67.5569ZM194.565 60.1376L195.037 59.9733L194.67 58.9194L194.128 59.8944L194.565 60.1376ZM196.113 64.5892L195.641 64.7534L196.609 64.6492L196.113 64.5892ZM199.21 38.9924L199.62 38.7069L198.871 37.6298L198.713 38.9323L199.21 38.9924ZM201.79 42.7021L201.38 42.9876L201.689 43.4322L202.108 43.0884L201.79 42.7021ZM205.403 39.7343L205.721 40.1207L205.843 40.0205L205.885 39.8684L205.403 39.7343ZM207.984 30.4601L208.466 30.5942L208.475 30.5591L208.48 30.5229L207.984 30.4601ZM210.048 14.1376L210.217 13.667L209.631 13.4561L209.552 14.0748L210.048 14.1376ZM213.145 15.2505L212.976 15.721L213.369 15.8621L213.578 15.5012L213.145 15.2505ZM218.306 6.34724L218.779 6.18298L218.421 5.1534L217.874 6.09647L218.306 6.34724ZM221.403 15.2505L220.931 15.4147L220.936 15.4303L220.943 15.4454L221.403 15.2505ZM225.016 23.7827L224.556 23.9777L224.889 24.7648L225.412 24.0885L225.016 23.7827ZM230.177 17.1053L230.673 17.0426L230.522 15.8424L229.782 16.7995L230.177 17.1053ZM231.21 25.2666L230.714 25.3293L231.708 25.3074L231.21 25.2666ZM233.274 0.0407844L233.773 0.00773053L232.776 0L233.274 0.0407844ZM235.339 31.2021L234.84 31.2351L234.943 32.7927L235.764 31.465L235.339 31.2021ZM239.468 24.5247L239.845 24.1966L239.4 23.6842L239.042 24.2617L239.468 24.5247ZM242.048 27.4924L241.671 27.8205L242.163 28.3859L242.496 27.7149L242.048 27.4924ZM247.21 17.1053L247.34 16.6225L246.944 16.5159L246.762 16.8828L247.21 17.1053ZM259.597 20.444L259.467 20.9268L259.646 20.975L259.813 20.8949L259.597 20.444ZM270.435 15.2505L270.612 14.7825L270.412 14.7073L270.219 14.7996L270.435 15.2505ZM281.274 19.3311L281.098 19.799L281.287 19.8701L281.472 19.7902L281.274 19.3311ZM286.435 17.1053L286.928 17.0196L286.819 16.3952L286.237 16.6462L286.435 17.1053ZM287.468 23.0408L286.975 23.1265L287.121 23.9643L287.782 23.4296L287.468 23.0408ZM295.726 16.3634L296.04 16.7522L296.089 16.713L296.126 16.6632L295.726 16.3634ZM299.339 11.5408L299.798 11.344L299.458 10.5481L298.939 11.241L299.339 11.5408ZM301.403 16.3634L300.944 16.5601L301.189 17.1332L301.695 16.7694L301.403 16.3634ZM301.833 14.1376C301.833 15.6103 303.027 16.8042 304.5 16.8042C305.973 16.8042 307.167 15.6103 307.167 14.1376C307.167 12.6648 305.973 11.4709 304.5 11.4709C303.027 11.4709 301.833 12.6648 301.833 14.1376ZM0.5 74.6053V75.1053H3.08065V74.6053V74.1053H0.5V74.6053ZM3.08065 74.6053V75.1053H5.66129V74.6053V74.1053H3.08065V74.6053ZM5.66129 74.6053L5.44523 75.0562L6.99362 75.7981L7.20968 75.3472L7.42574 74.8963L5.87735 74.1544L5.66129 74.6053ZM7.20968 75.3472L7.63913 75.6033L9.18752 73.0065L8.75806 72.7505L8.32861 72.4944L6.78023 75.0912L7.20968 75.3472ZM8.75806 72.7505V73.2505H12.371V72.7505V72.2505H8.75806V72.7505ZM12.371 72.7505H12.871V65.3311H12.371H11.871V72.7505H12.371ZM12.371 65.3311L12.0368 65.703L16.1658 69.4127L16.5 69.0408L16.8342 68.6688L12.7051 64.9592L12.371 65.3311ZM16.5 69.0408L16.9105 69.3263L18.4588 67.1005L18.0484 66.815L17.6379 66.5294L16.0895 68.7553L16.5 69.0408ZM18.0484 66.815L17.6379 67.1005L19.7025 70.0683L20.1129 69.7827L20.5234 69.4972L18.4588 66.5294L18.0484 66.815ZM20.1129 69.7827L19.6368 69.9356L21.1852 74.7582L21.6613 74.6053L22.1374 74.4525L20.589 69.6299L20.1129 69.7827ZM21.6613 74.6053L22.0982 74.8484L25.195 69.2839L24.7581 69.0408L24.3212 68.7976L21.2244 74.3622L21.6613 74.6053ZM24.7581 69.0408H25.2581V51.6053H24.7581H24.2581V69.0408H24.7581ZM24.7581 51.6053L24.9953 52.0454L27.0598 50.9325L26.8226 50.4924L26.5853 50.0523L24.5208 51.1652L24.7581 51.6053ZM26.8226 50.4924L26.369 50.7028L28.4335 55.1544L28.8871 54.944L29.3407 54.7336L27.2762 50.282L26.8226 50.4924ZM28.8871 54.944V55.444H32.5V54.944V54.444H28.8871V54.944ZM32.5 54.944L32.0024 54.9935L33.0347 65.3806L33.5323 65.3311L34.0298 65.2817L32.9975 54.8946L32.5 54.944ZM33.5323 65.3311L34.0217 65.4333L35.5701 58.0139L35.0806 57.9118L34.5912 57.8096L33.0428 65.229L33.5323 65.3311ZM35.0806 57.9118L35.5295 58.1321L38.6262 51.8257L38.1774 51.6053L37.7286 51.3849L34.6318 57.6914L35.0806 57.9118ZM38.1774 51.6053L37.7147 51.7947L40.2953 58.1011L40.7581 57.9118L41.2208 57.7224L38.6402 51.4159L38.1774 51.6053ZM40.7581 57.9118L40.2608 57.9636L41.8092 72.8024L42.3065 72.7505L42.8038 72.6986L41.2554 57.8599L40.7581 57.9118ZM42.3065 72.7505L42.765 72.9498L45.3456 67.0143L44.8871 66.815L44.4286 66.6156L41.8479 72.5511L42.3065 72.7505ZM44.8871 66.815L45.324 67.0581L47.3885 63.3484L46.9516 63.1053L46.5147 62.8622L44.4502 66.5718L44.8871 66.815ZM46.9516 63.1053L46.4539 63.0575L45.4216 73.8156L45.9194 73.8634L46.4171 73.9111L47.4493 63.1531L46.9516 63.1053ZM45.9194 73.8634L46.2708 74.219L50.3998 70.1384L50.0484 69.7827L49.6969 69.4271L45.5679 73.5077L45.9194 73.8634ZM50.0484 69.7827L50.5098 69.9753L52.0582 66.2656L51.5968 66.073L51.1354 65.8805L49.587 69.5901L50.0484 69.7827ZM51.5968 66.073L51.1642 66.3238L53.7448 70.7754L54.1774 70.5247L54.61 70.2739L52.0293 65.8223L51.5968 66.073ZM54.1774 70.5247L53.9949 70.9902L59.6723 73.216L59.8548 72.7505L60.0373 72.285L54.3599 70.0592L54.1774 70.5247ZM59.8548 72.7505L60.3386 72.8767L61.887 66.9412L61.4032 66.815L60.9194 66.6888L59.371 72.6243L59.8548 72.7505ZM61.4032 66.815L60.9286 66.9722L63.5092 74.7625L63.9839 74.6053L64.4585 74.4481L61.8779 66.6577L61.4032 66.815ZM63.9839 74.6053L64.4581 74.7637L67.5549 65.4895L67.0806 65.3311L66.6064 65.1727L63.5096 74.4469L63.9839 74.6053ZM67.0806 65.3311L66.6192 65.5237L68.1676 69.2334L68.629 69.0408L69.0904 68.8482L67.5421 65.1385L67.0806 65.3311ZM68.629 69.0408L69.1216 69.1265L70.1539 63.191L69.6613 63.1053L69.1687 63.0196L68.1364 68.9551L68.629 69.0408ZM69.6613 63.1053L69.2731 63.4204L72.886 67.872L73.2742 67.5569L73.6624 67.2418L70.0495 62.7902L69.6613 63.1053ZM73.2742 67.5569L73.7658 67.6481L74.7981 62.0836L74.3064 61.9924L73.8148 61.9012L72.7826 67.4657L73.2742 67.5569ZM74.3064 61.9924L73.8839 62.2596L76.4645 66.3403L76.8871 66.073L77.3097 65.8058L74.729 61.7252L74.3064 61.9924ZM76.8871 66.073L76.671 66.524L78.2194 67.2659L78.4355 66.815L78.6515 66.3641L77.1032 65.6221L76.8871 66.073ZM78.4355 66.815H77.9355V69.0408H78.4355H78.9355V66.815H78.4355ZM78.4355 69.0408L78.5143 69.5345L83.1595 68.7926L83.0806 68.2988L83.0018 67.8051L78.3566 68.547L78.4355 69.0408ZM83.0806 68.2988L83.4522 68.6334L89.1297 62.3269L88.7581 61.9924L88.3865 61.6579L82.709 67.9643L83.0806 68.2988ZM88.7581 61.9924L88.2691 62.0971L90.3337 71.7422L90.8226 71.6376L91.3115 71.5329L89.247 61.8877L88.7581 61.9924ZM90.8226 71.6376L90.3465 71.7904L91.8949 76.613L92.371 76.4601L92.847 76.3073L91.2986 71.4847L90.8226 71.6376ZM92.371 76.4601L91.8777 76.5418L94.4583 92.1225L94.9516 92.0408L95.4449 91.9591L92.8642 76.3784L92.371 76.4601ZM94.9516 92.0408L95.4113 92.2376L97.4758 87.415L97.0161 87.2182L96.5565 87.0214L94.492 91.844L94.9516 92.0408ZM97.0161 87.2182L96.847 87.6887L99.9438 88.8016L100.113 88.3311L100.282 87.8606L97.1852 86.7477L97.0161 87.2182ZM100.113 88.3311L100.582 88.505L104.711 77.376L104.242 77.2021L103.773 77.0282L99.6441 88.1572L100.113 88.3311ZM104.242 77.2021L103.754 77.3094L105.302 84.3577L105.79 84.2505L106.279 84.1432L104.73 77.0948L104.242 77.2021ZM105.79 84.2505L106.217 84.5104L109.83 78.575L109.403 78.315L108.976 78.055L105.363 83.9905L105.79 84.2505ZM109.403 78.315L108.909 78.3914L109.941 85.0688L110.435 84.9924L110.93 84.916L109.897 78.2386L109.403 78.315ZM110.435 84.9924L110.889 85.2028L113.986 78.5253L113.532 78.315L113.079 78.1046L109.982 84.782L110.435 84.9924ZM113.532 78.315L113.039 78.3957L115.103 91.0086L115.597 90.9279L116.09 90.8471L114.026 78.2342L113.532 78.315ZM115.597 90.9279L115.991 91.236L120.636 85.3006L120.242 84.9924L119.848 84.6842L115.203 90.6197L115.597 90.9279ZM120.242 84.9924L120.696 85.2028L124.308 77.4124L123.855 77.2021L123.401 76.9917L119.788 84.782L120.242 84.9924ZM123.855 77.2021L123.773 77.6953L130.483 78.8082L130.565 78.315L130.646 77.8217L123.937 76.7088L123.855 77.2021ZM130.565 78.315L131.046 78.449L132.078 74.7393L131.597 74.6053L131.115 74.4713L130.083 78.1809L130.565 78.315ZM131.597 74.6053L131.914 74.9917L135.527 72.0239L135.21 71.6376L134.892 71.2512L131.279 74.2189L131.597 74.6053ZM135.21 71.6376L135.663 71.8479L138.244 66.2834L137.79 66.073L137.337 65.8627L134.756 71.4272L135.21 71.6376ZM137.79 66.073L138.136 66.434L141.233 63.4663L140.887 63.1053L140.541 62.7443L137.444 65.712L137.79 66.073ZM140.887 63.1053L140.514 63.4386L145.16 68.6322L145.532 68.2988L145.905 67.9655L141.26 62.772L140.887 63.1053ZM145.532 68.2988L145.748 68.7498L148.845 67.2659L148.629 66.815L148.413 66.3641L145.316 67.8479L145.532 68.2988ZM148.629 66.815L148.175 67.0253L149.208 69.2511L149.661 69.0408L150.115 68.8304L149.083 66.6046L148.629 66.815ZM149.661 69.0408L149.953 69.4468L154.082 66.4791L153.79 66.073L153.498 65.667L149.369 68.6348L149.661 69.0408ZM153.79 66.073L154.028 66.5132L158.157 64.2874L157.919 63.8472L157.682 63.4071L153.553 65.6329L153.79 66.073ZM157.919 63.8472L158.297 64.1753L163.458 58.2398L163.081 57.9118L162.703 57.5837L157.542 63.5191L157.919 63.8472ZM163.081 57.9118L162.883 58.3709L168.044 60.5967L168.242 60.1376L168.44 59.6784L163.279 57.4526L163.081 57.9118ZM168.242 60.1376L168.732 60.235L169.765 55.0415L169.274 54.944L168.784 54.8465L167.752 60.0401L168.242 60.1376ZM169.274 54.944L168.864 55.2295L172.477 60.4231L172.887 60.1376L173.298 59.852L169.685 54.6585L169.274 54.944ZM172.887 60.1376L172.477 60.4231L175.057 64.1328L175.468 63.8472L175.878 63.5617L173.298 59.852L172.887 60.1376ZM175.468 63.8472L175.712 64.2837L180.357 61.6869L180.113 61.2505L179.869 60.814L175.224 63.4108L175.468 63.8472ZM180.113 61.2505L179.821 61.6565L183.434 64.2532L183.726 63.8472L184.018 63.4412L180.405 60.8445L180.113 61.2505ZM183.726 63.8472L183.247 63.9901L184.795 69.1836L185.274 69.0408L185.753 68.8979L184.205 63.7044L183.726 63.8472ZM185.274 69.0408L185.662 69.3559L189.275 64.9043L188.887 64.5892L188.499 64.2741L184.886 68.7257L185.274 69.0408ZM188.887 64.5892L188.444 64.8205L189.992 67.7882L190.435 67.5569L190.879 67.3256L189.33 64.3579L188.887 64.5892ZM190.435 67.5569L190.872 67.8001L195.001 60.3807L194.565 60.1376L194.128 59.8944L189.999 67.3138L190.435 67.5569ZM194.565 60.1376L194.092 60.3018L195.641 64.7534L196.113 64.5892L196.585 64.4249L195.037 59.9733L194.565 60.1376ZM196.113 64.5892L196.609 64.6492L199.706 39.0525L199.21 38.9924L198.713 38.9323L195.617 64.5291L196.113 64.5892ZM199.21 38.9924L198.799 39.2779L201.38 42.9876L201.79 42.7021L202.201 42.4165L199.62 38.7069L199.21 38.9924ZM201.79 42.7021L202.108 43.0884L205.721 40.1207L205.403 39.7343L205.086 39.348L201.473 42.3157L201.79 42.7021ZM205.403 39.7343L205.885 39.8684L208.466 30.5942L207.984 30.4601L207.502 30.3261L204.922 39.6003L205.403 39.7343ZM207.984 30.4601L208.48 30.5229L210.544 14.2003L210.048 14.1376L209.552 14.0748L207.488 30.3974L207.984 30.4601ZM210.048 14.1376L209.879 14.6081L212.976 15.721L213.145 15.2505L213.314 14.7799L210.217 13.667L210.048 14.1376ZM213.145 15.2505L213.578 15.5012L218.739 6.598L218.306 6.34724L217.874 6.09647L212.713 14.9997L213.145 15.2505ZM218.306 6.34724L217.834 6.5115L220.931 15.4147L221.403 15.2505L221.875 15.0862L218.779 6.18298L218.306 6.34724ZM221.403 15.2505L220.943 15.4454L224.556 23.9777L225.016 23.7827L225.477 23.5878L221.864 15.0555L221.403 15.2505ZM225.016 23.7827L225.412 24.0885L230.573 17.4111L230.177 17.1053L229.782 16.7995L224.621 23.4769L225.016 23.7827ZM230.177 17.1053L229.681 17.168L230.714 25.3293L231.21 25.2666L231.706 25.2038L230.673 17.0426L230.177 17.1053ZM231.21 25.2666L231.708 25.3074L233.773 0.0815687L233.274 0.0407844L232.776 0L230.711 25.2258L231.21 25.2666ZM233.274 0.0407844L232.775 0.0738382L234.84 31.2351L235.339 31.2021L235.838 31.169L233.773 0.00773053L233.274 0.0407844ZM235.339 31.2021L235.764 31.465L239.893 24.7876L239.468 24.5247L239.042 24.2617L234.913 30.9391L235.339 31.2021ZM239.468 24.5247L239.09 24.8527L241.671 27.8205L242.048 27.4924L242.426 27.1643L239.845 24.1966L239.468 24.5247ZM242.048 27.4924L242.496 27.7149L247.657 17.3278L247.21 17.1053L246.762 16.8828L241.601 27.2699L242.048 27.4924ZM247.21 17.1053L247.08 17.5881L259.467 20.9268L259.597 20.444L259.727 19.9612L247.34 16.6225L247.21 17.1053ZM259.597 20.444L259.813 20.8949L270.652 15.7014L270.435 15.2505L270.219 14.7996L259.381 19.9931L259.597 20.444ZM270.435 15.2505L270.259 15.7184L281.098 19.799L281.274 19.3311L281.45 18.8632L270.612 14.7825L270.435 15.2505ZM281.274 19.3311L281.472 19.7902L286.633 17.5644L286.435 17.1053L286.237 16.6462L281.076 18.872L281.274 19.3311ZM286.435 17.1053L285.943 17.191L286.975 23.1265L287.468 23.0408L287.96 22.9551L286.928 17.0196L286.435 17.1053ZM287.468 23.0408L287.782 23.4296L296.04 16.7522L295.726 16.3634L295.411 15.9746L287.153 22.652L287.468 23.0408ZM295.726 16.3634L296.126 16.6632L299.739 11.8406L299.339 11.5408L298.939 11.241L295.326 16.0636L295.726 16.3634ZM299.339 11.5408L298.879 11.7376L300.944 16.5601L301.403 16.3634L301.863 16.1666L299.798 11.344L299.339 11.5408ZM301.403 16.3634L301.695 16.7694L304.792 14.5436L304.5 14.1376L304.208 13.7316L301.111 15.9574L301.403 16.3634Z" fill="var(--stroke-0, #4C7EFF)"/>
</svg>
