<svg preserveAspectRatio="none" width="100%" height="100%" overflow="visible" style="display: block;" viewBox="0 0 22 22" fill="none" xmlns="http://www.w3.org/2000/svg">
<g id="White Icons" opacity="0.5">
<path id="copy" d="M6 6H5C3.59988 6 2.8998 6 2.36503 6.27249C1.89461 6.51216 1.51216 6.89461 1.27249 7.36503C1 7.8998 1 8.59988 1 10V17C1 18.4001 1 19.1003 1.27249 19.635C1.51216 20.1054 1.89461 20.4879 2.36503 20.7275C2.8998 21 3.59988 21 5 21H12C13.4001 21 14.1003 21 14.635 20.7275C15.1054 20.4879 15.4879 20.1054 15.7275 19.635C16 19.1003 16 18.4001 16 17V16M10 16H17C18.4001 16 19.1003 16 19.635 15.7275C20.1054 15.4879 20.4879 15.1054 20.7275 14.635C21 14.1003 21 13.4001 21 12V5C21 3.59988 21 2.8998 20.7275 2.36503C20.4879 1.89461 20.1054 1.51216 19.635 1.27249C19.1003 1 18.4001 1 17 1H10C8.59988 1 7.8998 1 7.36503 1.27249C6.89461 1.51216 6.51216 1.89461 6.27249 2.36503C6 2.8998 6 3.59986 6 5V12C6 13.4001 6 14.1003 6.27249 14.635C6.51216 15.1054 6.89461 15.4879 7.36503 15.7275C7.8998 16 8.59988 16 10 16Z" stroke="var(--stroke-0, white)" stroke-width="2" stroke-linecap="round" stroke-linejoin="round"/>
</g>
</svg>
