<svg width="30" height="24" viewBox="0 0 30 24" fill="none" xmlns="http://www.w3.org/2000/svg">
<path d="M19.3671 1.25343e-06H8.6005L7.7086 4.9869L17.4243 4.99846C22.2088 4.99682 23.6239 6.73536 23.5829 9.61698C23.5623 11.0947 22.9218 13.5919 22.6451 14.4015C21.908 16.5596 20.3938 19.0214 14.7146 19.0123L5.2703 19.0082L4.37664 24H15.1187C18.9073 24 20.5182 23.5595 22.226 22.7709C26.009 21.0231 28.2603 17.2895 29.162 12.4168C30.5049 5.16141 28.8318 1.25343e-06 19.3671 1.25343e-06Z" fill="#008CE3"/>
<path d="M3.95527 9.49607C1.13528 9.49607 0.731174 11.3338 0.463638 12.4446C0.114859 13.8989 0 14.4875 0 14.4875H11.0233C13.844 14.4875 14.2481 12.6498 14.5149 11.539C14.8644 10.0847 14.9793 9.49607 14.9793 9.49607H3.95527Z" fill="#008CE3"/>
</svg>
