<svg preserveAspectRatio="none" width="100%" height="100%" overflow="visible" style="display: block;" viewBox="0 0 65 74" fill="none" xmlns="http://www.w3.org/2000/svg">
<g id="White Icons">
<path id="lock" d="M50.5495 13C47.5113 5.9364 40.5731 1 32.5 1C21.6269 1 12.8125 9.95432 12.8125 21V29.1152M12.8125 29.1152C14.6687 29 16.9571 29 19.9 29H45.1C51.7158 29 55.0233 29 57.5504 30.308C59.7731 31.4584 61.58 33.294 62.7124 35.552C64 38.1192 64 41.4792 64 48.2V53.8C64 60.5208 64 63.8808 62.7124 66.448C61.58 68.706 59.7731 70.5416 57.5504 71.692C55.0233 73 51.7158 73 45.1 73H19.9C13.2844 73 9.97656 73 7.44974 71.692C5.22706 70.5416 3.41999 68.706 2.28748 66.448C1 63.8808 1 60.5208 1 53.8V48.2C1 41.4792 1 38.1192 2.28748 35.552C3.41999 33.294 5.22706 31.4584 7.44974 30.308C8.85252 29.582 10.496 29.2588 12.8125 29.1152ZM32.5 47V55" stroke="var(--stroke-0, white)" stroke-width="2" stroke-linecap="round" stroke-linejoin="round"/>
</g>
</svg>
