<svg preserveAspectRatio="none" width="100%" height="100%" overflow="visible" style="display: block;" viewBox="0 0 191.12 50.4667" fill="none" xmlns="http://www.w3.org/2000/svg">
<g id="Logo">
<path id="Vector" d="M40.6868 0H18.0661L16.1864 10.482L36.6087 10.5138C46.6765 10.5138 49.6395 14.1778 49.5439 20.2312C49.5121 23.3216 48.1421 28.5785 47.5686 30.2671C46.0074 34.7913 42.8533 39.9845 30.9057 39.9526H11.0569L9.20898 50.4346H31.766C39.731 50.4346 43.1082 49.5107 46.7084 47.8539C54.6415 44.19 59.3887 36.3524 61.2685 26.0935C64.104 10.8643 60.5675 0 40.6868 0Z" fill="var(--fill-0, white)"/>
<path id="Vector_2" d="M110.648 50.4667L112.241 41.3547H131.549C133.078 41.3547 134.129 40.4307 134.352 38.9333C134.671 37.404 133.906 36.5119 132.377 36.5119H123.138C115.842 36.5119 112.369 32.2745 113.643 24.9786C114.95 17.6826 119.952 13.4452 127.248 13.4452H148.243L146.587 22.5572H128.076C126.547 22.5572 125.495 23.4811 125.272 24.9786C124.954 26.5078 125.718 27.3999 127.248 27.3999H136.487C143.783 27.3999 147.256 31.6373 145.981 38.9333C144.707 46.2293 139.769 50.4667 132.473 50.4667H110.648Z" fill="var(--fill-0, white)"/>
<path id="Vector_3" d="M81.2103 50.4664C69.199 50.4664 63.8147 43.9351 65.9493 31.9238C67.9883 19.9126 75.7303 13.4131 87.7416 13.4131H108.992L102.461 50.4664H81.2103ZM95.0376 22.5251H89.5577C83.0263 22.5251 79.1712 25.4244 78.0243 31.9238C76.8136 38.4552 79.235 41.3544 85.7663 41.3544H91.756L95.0376 22.5251Z" fill="var(--fill-0, white)"/>
<path id="Vector_4" d="M174.594 50.4665L178.386 28.8972C179.055 24.6598 177.334 22.8119 173.097 22.8119H167.044L162.169 50.4346H149.871L158.76 0H171.058L168.7 13.4131H177.908C188.677 13.4131 192.564 18.1284 190.652 28.8972L186.861 50.4665H174.594Z" fill="var(--fill-0, white)"/>
<path id="Vector_5" d="M8.3155 19.9447C2.38951 19.9447 1.52929 23.7998 0.987665 26.1256C0.254881 29.1842 0 30.4267 0 30.4267H23.1623C29.0883 30.4267 29.9485 26.5716 30.4902 24.2458C31.2229 21.1873 31.4778 19.9447 31.4778 19.9447H8.3155Z" fill="var(--fill-0, white)"/>
</g>
</svg>
