<svg preserveAspectRatio="none" width="100%" height="100%" overflow="visible" style="display: block;" viewBox="0 0 142.368 25.4531" fill="none" xmlns="http://www.w3.org/2000/svg">
<g id="Group">
<path id="Vector" d="M28.7336 7.10603C23.5617 7.10603 19.5206 11.0354 19.5206 16.2957C19.5206 21.556 23.4596 25.4518 28.7336 25.4518C34.0075 25.4518 38.015 21.4888 38.015 16.2621C38.015 11.069 34.076 7.10603 28.7336 7.10603ZM28.7685 21.6608C25.8232 21.6608 23.665 19.3715 23.665 16.297C23.665 13.1876 25.7883 10.8996 28.7336 10.8996C31.7136 10.8996 33.8706 13.2226 33.8706 16.297C33.8706 19.3715 31.7136 21.6608 28.7685 21.6608ZM39.1445 11.104H41.7135V25.1116H45.8231V7.4475H39.1445V11.104ZM9.17809 10.8983C11.3363 10.8983 13.0486 12.2305 13.6986 14.212H18.0486C17.2603 9.9761 13.7671 7.10603 9.21298 7.10603C4.04109 7.10603 0 11.0354 0 16.297C0 21.5586 3.93901 25.4531 9.21298 25.4531C13.665 25.4531 17.2267 22.583 18.015 18.3121H13.6986C13.0822 20.2937 11.3699 21.6608 9.2117 21.6608C6.23159 21.6608 4.14317 19.3715 4.14317 16.297C4.14449 13.1876 6.19928 10.8983 9.17809 10.8983ZM117.229 14.5884L114.216 14.1448C112.777 13.9404 111.75 13.4619 111.75 12.334C111.75 11.104 113.086 10.4896 114.901 10.4896C116.887 10.4896 118.155 11.3433 118.428 12.744H122.401C121.956 9.19099 119.216 7.1073 115.004 7.1073C110.654 7.1073 107.777 9.32812 107.777 12.4711C107.777 15.477 109.661 17.2205 113.462 17.7663L116.476 18.21C117.949 18.4143 118.771 18.9964 118.771 20.0893C118.771 21.4901 117.333 22.0708 115.346 22.0708C112.914 22.0708 111.544 21.0801 111.339 19.5771H107.298C107.675 23.0279 110.38 25.4531 115.312 25.4531C119.799 25.4531 122.777 23.403 122.777 19.8836C122.777 16.7407 120.62 15.1006 117.229 14.5884ZM43.7683 0.170731C42.2615 0.170731 41.1309 1.26367 41.1309 2.76661C41.1309 4.26956 42.2603 5.36249 43.7683 5.36249C45.2751 5.36249 46.406 4.26956 46.406 2.76661C46.406 1.26367 45.2751 0.170731 43.7683 0.170731ZM104.079 13.4955C104.079 9.66955 101.75 7.1073 96.8183 7.1073C92.1607 7.1073 89.558 9.46521 89.0438 13.0867H93.1196C93.325 11.686 94.421 10.5245 96.75 10.5245C98.8397 10.5245 99.8669 11.4467 99.8669 12.5746C99.8669 14.0439 97.9826 14.419 95.654 14.6583C92.5033 14.9997 88.5991 16.0926 88.5991 20.1928C88.5991 23.3707 90.9627 25.4194 94.7301 25.4194C97.6751 25.4194 99.5244 24.1894 100.45 22.2416C100.587 23.9838 101.888 25.1116 103.704 25.1116H106.101V21.4564H104.08V13.4955H104.079ZM100.037 17.9371C100.037 20.2949 97.9826 22.0372 95.482 22.0372C93.9406 22.0372 92.6392 21.3879 92.6392 20.022C92.6392 18.2798 94.7286 17.8013 96.6467 17.5969C98.496 17.4262 99.5232 17.0161 100.037 16.2298V17.9371ZM78.2218 7.10603C75.9266 7.10603 74.0089 8.06314 72.6392 9.66828V0H68.5296V25.1116H72.5704V22.7887C73.9402 24.4623 75.8932 25.4531 78.2218 25.4531C83.1532 25.4531 86.8869 21.5586 86.8869 16.297C86.8869 11.0354 83.0848 7.10603 78.2218 7.10603ZM77.6055 21.6608C74.6602 21.6608 72.5021 19.3715 72.5021 16.297C72.5021 13.2226 74.694 10.8996 77.6389 10.8996C80.6192 10.8996 82.7073 13.189 82.7073 16.297C82.7073 19.3715 80.5504 21.6608 77.6055 21.6608ZM58.6998 7.10603C56.0287 7.10603 54.2815 8.19896 53.2543 9.7368V7.4475H49.1781V25.1104H53.2877V15.5106C53.2877 12.8113 54.9999 10.8983 57.5344 10.8983C59.8979 10.8983 61.3698 12.572 61.3698 14.9984V25.1116H65.4794V14.6919C65.481 10.249 63.1869 7.10603 58.6998 7.10603ZM142.368 15.7163C142.368 10.6603 138.669 7.1073 133.703 7.1073C128.429 7.1073 124.558 11.0703 124.558 16.297C124.558 21.7979 128.702 25.4531 133.771 25.4531C138.053 25.4531 141.409 22.9245 142.264 19.3378H137.983C137.366 20.9093 135.859 21.7979 133.838 21.7979C131.201 21.7979 129.214 20.1579 128.77 17.2878H142.366V15.7163H142.368ZM129.01 14.3491C129.662 11.8891 131.511 10.694 133.634 10.694C135.963 10.694 137.744 12.0261 138.155 14.3491H129.01Z" fill="var(--fill-0, white)"/>
</g>
</svg>
