<svg preserveAspectRatio="none" width="100%" height="100%" overflow="visible" style="display: block;" viewBox="0 0 198.889 46.7627" fill="none" xmlns="http://www.w3.org/2000/svg">
<g id="Frame" clip-path="url(#clip0_0_6)">
<path id="Vector" fill-rule="evenodd" clip-rule="evenodd" d="M39.492 24.2733C41.3172 27.4589 40.234 31.5322 37.0727 33.3714L29.1467 37.9825C25.9853 39.8217 21.9429 38.7302 20.1177 35.5447C18.2925 32.3591 19.3757 28.2858 22.537 26.4466L30.463 21.8355C33.6243 19.9963 37.6668 21.0878 39.492 24.2733ZM30.8314 9.15682C32.6567 12.3424 31.5735 16.4157 28.4121 18.2549L9.91557 29.0157C6.75419 30.8549 2.71178 29.7634 0.886578 26.5778C-0.93863 23.3923 0.144528 19.3189 3.30588 17.4797L21.8024 6.71903C24.9639 4.87986 29.0062 5.9713 30.8314 9.15682Z" fill="var(--fill-0, white)"/>
<path id="Vector_2" d="M62.4483 34.3908H58.4704V13.9071H50.9531V10.3091H70.0283V13.9071H62.4483V34.3908ZM75.6751 34.738C73.9629 34.738 72.4385 34.3488 71.1021 33.5702C69.7656 32.7917 68.7216 31.708 67.9698 30.3193C67.239 28.9096 66.8736 27.2999 66.8736 25.4903C66.8736 23.7439 67.239 22.1869 67.9698 20.8192C68.7216 19.4305 69.7656 18.3574 71.1021 17.5999C72.4385 16.8214 73.9629 16.4321 75.6751 16.4321C77.3874 16.4321 78.9117 16.8214 80.2482 17.5999C81.5846 18.3574 82.6286 19.4305 83.3808 20.8192C84.1324 22.1869 84.5078 23.7439 84.5078 25.4903C84.5078 27.2788 84.1324 28.878 83.3808 30.2878C82.6495 31.6765 81.6159 32.7706 80.2795 33.5702C78.9431 34.3488 77.4083 34.738 75.6751 34.738ZM75.6751 31.4871C76.6357 31.4871 77.5023 31.2346 78.2749 30.7297C79.0475 30.2036 79.6426 29.4882 80.0602 28.5834C80.4987 27.6787 80.718 26.6476 80.718 25.4903C80.718 24.3962 80.4987 23.4073 80.0602 22.5235C79.6426 21.6187 79.0475 20.9139 78.2749 20.4089C77.5023 19.9039 76.6357 19.6514 75.6751 19.6514C74.7146 19.6514 73.848 19.9039 73.0754 20.4089C72.3027 20.8928 71.6972 21.5872 71.2587 22.492C70.8411 23.3757 70.6322 24.3751 70.6322 25.4903C70.6322 26.6687 70.8515 27.7102 71.2901 28.615C71.7285 29.5198 72.3236 30.2246 73.0754 30.7297C73.848 31.2346 74.7146 31.4871 75.6751 31.4871ZM96.4876 16.4005C98.0116 16.4005 99.3483 16.7898 100.497 17.5683C101.666 18.3258 102.574 19.3989 103.222 20.7876C103.869 22.1764 104.193 23.765 104.193 25.5535C104.193 27.342 103.869 28.9306 103.222 30.3193C102.574 31.708 101.666 32.7917 100.497 33.5702C99.3483 34.3277 98.0116 34.7064 96.4876 34.7064C95.3804 34.7064 94.42 34.5065 93.6062 34.1068C92.7916 33.7069 92.0084 33.0021 91.2568 31.9921V40.8295H87.5608V16.7477H91.2568V19.1464C92.0084 18.1364 92.7808 17.4315 93.5747 17.0317C94.3893 16.6109 95.3597 16.4005 96.4876 16.4005ZM95.7359 19.6199C94.7962 19.6199 93.9609 19.8723 93.2299 20.3773C92.499 20.8823 91.9247 21.5872 91.5071 22.492C91.0894 23.3968 90.8806 24.4172 90.8806 25.5535C90.8806 26.6897 91.0894 27.7102 91.5071 28.615C91.9247 29.5198 92.499 30.2246 93.2299 30.7297C93.9609 31.2346 94.7962 31.4871 95.7359 31.4871C97.1762 31.4871 98.3248 30.9295 99.1809 29.8144C100.038 28.6992 100.465 27.2788 100.465 25.5535C100.465 23.8281 100.038 22.4078 99.1809 21.2926C98.3248 20.1774 97.1762 19.6199 95.7359 19.6199ZM116.209 16.4005C117.734 16.4005 119.071 16.7898 120.218 17.5683C121.388 18.3258 122.297 19.3989 122.944 20.7876C123.591 22.1764 123.914 23.765 123.914 25.5535C123.914 27.342 123.591 28.9306 122.944 30.3193C122.297 31.708 121.388 32.7917 120.218 33.5702C119.071 34.3277 117.734 34.7064 116.209 34.7064C115.103 34.7064 114.142 34.5065 113.328 34.1068C112.513 33.7069 111.731 33.0021 110.978 31.9921V40.8295H107.282V16.7477H110.978V19.1464C111.731 18.1364 112.503 17.4315 113.296 17.0317C114.111 16.6109 115.082 16.4005 116.209 16.4005ZM115.457 19.6199C114.518 19.6199 113.683 19.8723 112.952 20.3773C112.221 20.8823 111.647 21.5872 111.229 22.492C110.812 23.3968 110.603 24.4172 110.603 25.5535C110.603 26.6897 110.812 27.7102 111.229 28.615C111.647 29.5198 112.221 30.2246 112.952 30.7297C113.683 31.2346 114.518 31.4871 115.457 31.4871C116.899 31.4871 118.047 30.9295 118.903 29.8144C119.759 28.6992 120.188 27.2788 120.188 25.5535C120.188 23.8281 119.759 22.4078 118.903 21.2926C118.047 20.1774 116.899 19.6199 115.457 19.6199ZM135.023 34.738C133.311 34.738 131.786 34.3488 130.45 33.5702C129.134 32.7706 128.111 31.687 127.381 30.3193C126.65 28.9306 126.285 27.3735 126.285 25.6482C126.285 24.049 126.608 22.5445 127.255 21.1348C127.924 19.7251 128.905 18.5888 130.199 17.7261C131.515 16.8635 133.092 16.4321 134.93 16.4321C136.474 16.4321 137.905 16.7688 139.221 17.4421C140.556 18.0943 141.621 19.0938 142.415 20.4405C143.23 21.7871 143.637 23.4388 143.637 25.3956V26.3425H130.043C130.168 27.1631 130.367 27.8154 130.638 28.2993C131.055 29.2883 131.65 30.0668 132.424 30.635C133.217 31.2031 134.115 31.4871 135.117 31.4871C136.182 31.4871 137.09 31.2136 137.842 30.6665C138.615 30.0984 139.168 29.3935 139.502 28.5519H143.324C142.76 30.3825 141.778 31.8764 140.379 33.0336C138.98 34.1699 137.194 34.738 135.023 34.738ZM139.784 23.4073C139.7 22.755 139.512 22.1974 139.221 21.7345C138.803 20.998 138.229 20.4405 137.498 20.0617C136.767 19.6619 135.952 19.462 135.055 19.462C134.136 19.462 133.321 19.6619 132.612 20.0617C131.901 20.4405 131.327 20.998 130.889 21.7345C130.617 22.1553 130.408 22.7129 130.262 23.4073H139.784ZM146.635 34.3908V16.7477H150.331V18.957C151.02 18.0312 151.771 17.3789 152.586 17.0002C153.421 16.6215 154.402 16.4321 155.53 16.4321H155.937V20.0617H154.998C153.599 20.0617 152.524 20.4405 151.771 21.1979C150.811 22.1027 150.331 23.6597 150.331 25.8691V34.3908H146.635ZM166.654 22.2437V14.8376H167.226V17.7458C167.654 17.1337 168.328 16.746 169.078 16.746C170.499 16.746 171.459 17.8677 171.459 19.5654C171.459 21.2632 170.488 22.3739 169.078 22.3739C168.284 22.3739 167.602 21.9418 167.226 21.3852V22.241H166.654V22.2437ZM167.226 20.9004C167.533 21.41 168.24 21.856 168.979 21.856C170.169 21.856 170.843 20.8672 170.843 19.5683C170.843 18.2693 170.169 17.2694 168.979 17.2694C168.24 17.2694 167.536 17.7347 167.226 18.2471V20.9004ZM172.506 23.8089C172.627 23.8642 172.836 23.8975 172.968 23.8975C173.319 23.8975 173.565 23.7534 173.773 23.241L174.191 22.2855L171.943 16.8763H172.583L174.523 21.5626L176.442 16.8763H177.093L174.339 23.4183C174.054 24.0969 173.6 24.4181 172.974 24.4181C172.797 24.4181 172.555 24.3849 172.413 24.3406L172.511 23.8089H172.506ZM170.104 33.894C169.719 34.3261 169.056 34.7388 168.218 34.7388C167.072 34.7388 166.512 34.1377 166.512 33.041V29.2438H167.668V32.62C167.668 33.4537 168.086 33.7084 168.737 33.7084C169.323 33.7084 169.829 33.3761 170.104 33.0078V29.2438H171.261V34.6086H170.104V33.894ZM173.808 36.6458H172.651V29.2397H173.808V29.9737C174.204 29.4419 174.823 29.1068 175.515 29.1068C176.893 29.1068 177.874 30.151 177.874 31.9152C177.874 33.6795 176.893 34.7347 175.515 34.7347C174.842 34.7347 174.238 34.4356 173.808 33.8568V36.6458ZM175.175 30.1371C174.636 30.1371 174.061 30.4584 173.808 30.8599V32.9815C174.061 33.3693 174.636 33.7044 175.175 33.7044C176.09 33.7044 176.672 32.9594 176.672 31.9152C176.672 30.871 176.087 30.1371 175.175 30.1371ZM182.599 34.6043V31.2281C182.599 30.3944 182.17 30.1396 181.519 30.1396C180.933 30.1396 180.427 30.4941 180.153 30.8625V34.6043H178.995V27.1983H180.153V29.9735C180.504 29.5524 181.2 29.1065 182.038 29.1065C183.184 29.1065 183.756 29.7076 183.756 30.8043V34.6015H182.599V34.6043ZM184.823 31.9152C184.823 30.3836 185.869 29.1068 187.555 29.1068C189.24 29.1068 190.298 30.3836 190.298 31.9152C190.298 33.4468 189.261 34.7347 187.555 34.7347C185.848 34.7347 184.823 33.4579 184.823 31.9152ZM189.1 31.9152C189.1 30.9707 188.549 30.1371 187.557 30.1371C186.565 30.1371 186.026 30.9707 186.026 31.9152C186.026 32.8597 186.576 33.7044 187.557 33.7044C188.539 33.7044 189.1 32.8707 189.1 31.9152ZM191.394 34.6043V27.1983H192.551V34.6043H191.394ZM197.733 33.8711C197.326 34.4029 196.707 34.7381 196.026 34.7381C194.659 34.7381 193.657 33.6938 193.657 31.9295C193.657 30.1653 194.649 29.11 196.026 29.11C196.688 29.11 197.304 29.4202 197.733 29.9881V27.2018H198.89V34.6079H197.733V33.8711ZM197.733 30.8633C197.469 30.4645 196.905 30.1404 196.356 30.1404C195.44 30.1404 194.857 30.8854 194.857 31.9295C194.857 32.9738 195.443 33.7077 196.356 33.7077C196.905 33.7077 197.469 33.3975 197.733 32.9959V30.8633Z" fill="var(--fill-0, white)"/>
</g>
<defs>
<clipPath id="clip0_0_6">
<rect width="198.889" height="46.7627" fill="white"/>
</clipPath>
</defs>
</svg>
