<svg preserveAspectRatio="none" width="100%" height="100%" overflow="visible" style="display: block;" viewBox="0 0 156.27 49.7223" fill="none" xmlns="http://www.w3.org/2000/svg">
<g id="Frame" clip-path="url(#clip0_0_11)">
<path id="Vector" fill-rule="evenodd" clip-rule="evenodd" d="M24.4166 46.8633C24.1664 45.9931 23.2663 45.4959 22.416 45.7445C20.9157 46.192 19.4652 46.4158 18.0398 46.4158H17.8398C16.4144 46.4158 14.939 46.1672 13.4386 45.7197C12.5883 45.4711 11.6881 45.9683 11.438 46.8384C11.188 47.7334 11.6631 48.6533 12.5133 48.9019C14.2888 49.4488 16.0893 49.7223 17.8398 49.7223H18.0398C19.7903 49.7223 21.5658 49.4488 23.3412 48.9019C24.1915 48.6533 24.6667 47.7334 24.4166 46.8633ZM32.7189 28.5406C35.1444 22.8474 35.6947 16.7316 34.1691 12.1571C34.1691 12.1322 34.1693 12.1322 34.1942 12.1322V12.1074C31.8936 4.84793 25.3919 0 17.9398 0C10.4628 0 3.93597 4.89765 1.66035 12.1571C0.134934 16.7067 0.660078 22.8474 3.11075 28.5406C6.43666 36.3222 12.4883 41.717 17.8398 41.717H17.9899C23.3412 41.717 29.393 36.3222 32.7189 28.5406ZM26.3672 33.8609C27.8676 32.046 29.2179 29.8583 30.2681 27.4219C32.4438 22.3253 32.9438 16.9553 31.6436 13.0273C30.9434 10.9389 29.768 9.47212 28.2426 8.75115C25.892 7.60753 22.8161 8.42797 19.8653 10.8644C21.7409 12.9775 23.3663 15.5382 24.5916 18.3973C26.9173 23.8667 27.4424 29.5102 26.3672 33.8609ZM4.16103 13.0024C2.83567 16.9305 3.3608 22.3253 5.53641 27.4219C6.58668 29.8831 7.93705 32.0709 9.43746 33.836C8.33716 29.4853 8.86231 23.8419 11.213 18.3724C12.4383 15.5134 14.0637 12.9278 15.9392 10.8395C13.0134 8.40309 9.93759 7.60753 7.56195 8.72628C6.03654 9.44726 4.86121 10.9389 4.16103 13.0024ZM17.9147 38.9823C18.6901 38.9823 19.4402 38.8083 20.1153 38.4851C24.6917 36.2973 25.6169 27.6207 22.141 19.516C21.0407 16.9305 19.5902 14.6184 17.9147 12.7538C16.2393 14.6432 14.7889 16.9305 13.6886 19.516C10.2127 27.6207 11.1379 36.3222 15.7142 38.4851C16.3894 38.8083 17.1396 38.9823 17.9147 38.9823ZM17.9147 8.9749C20.6655 6.58822 23.6163 5.39489 26.3171 5.5192C23.9164 3.75405 21.0156 2.75961 17.9147 2.75961C14.8139 2.75961 11.8881 3.75405 9.51249 5.5192C12.2132 5.41975 15.164 6.61309 17.9147 8.9749Z" fill="var(--fill-0, white)"/>
<path id="Vector_2" fill-rule="evenodd" clip-rule="evenodd" d="M60.9433 31.0596V33.0431C60.9433 33.244 61.0938 33.3948 61.3196 33.4198H64.3295C64.5302 33.4198 64.6808 33.2692 64.6808 33.0684V16.1699C64.6808 15.9691 64.5302 15.8184 64.3295 15.8184H61.3196C61.1189 15.8184 60.9683 15.9691 60.9683 16.1699V28.1721C60.1156 29.3271 58.485 30.4571 56.629 30.4571C54.4968 30.4571 53.1674 29.5782 53.1674 26.8414V16.1448C53.1674 15.944 53.017 15.7933 52.8163 15.7933H49.8062C49.6055 15.7933 49.4551 15.944 49.4551 16.1448V28.2474C49.4551 31.8129 51.2861 33.8217 54.9483 33.8217C57.6323 33.8217 59.7393 32.4406 60.9433 31.0596ZM73.2772 39.7473V30.9591C74.6819 32.8173 76.5882 33.8217 78.7454 33.8467C83.1601 33.8467 86.2956 30.3816 86.2956 24.5815C86.2956 18.7814 83.1601 15.3665 78.7454 15.3665C76.5131 15.3665 74.5565 16.4462 73.2772 18.2037V16.1448C73.2772 15.944 73.1268 15.7933 72.9262 15.7933H69.916C69.7153 15.7933 69.5649 15.944 69.5649 16.1448V39.7473C69.5649 39.9482 69.7153 40.0989 69.916 40.0989H72.9262C73.1268 40.0989 73.2772 39.9482 73.2772 39.7473ZM101.64 33.0431C101.64 33.244 101.79 33.3948 101.991 33.3948L105.001 33.3695C105.201 33.3695 105.352 33.219 105.352 33.0181V20.9155C105.352 17.2999 103.521 15.3414 99.8586 15.3414C97.1747 15.3414 94.9924 16.7726 93.8637 18.1536V9.44074C93.8637 9.23986 93.7133 9.08922 93.5124 9.08922H90.5025C90.3018 9.08922 90.1514 9.23986 90.1514 9.44074V33.0431C90.1514 33.244 90.3018 33.3948 90.5025 33.3948H93.5124C93.7133 33.3948 93.8637 33.244 93.8637 33.0431V21.0913C94.7166 19.9111 96.3219 18.7561 98.2282 18.7561C100.31 18.7561 101.64 19.5597 101.64 22.3216V33.0431ZM118.127 15.3665C112.709 15.3665 109.398 19.5094 109.398 24.5815C109.398 29.6032 112.734 33.8217 118.127 33.8467C123.545 33.8467 126.856 29.6032 126.856 24.5815C126.856 19.5094 123.545 15.3665 118.127 15.3665ZM130.622 9.44074V33.0431C130.622 33.244 130.797 33.3948 130.973 33.3948H133.983C134.184 33.3948 134.334 33.244 134.334 33.0431V9.44074C134.334 9.23986 134.184 9.08922 133.983 9.08922H130.973C130.772 9.08922 130.622 9.23986 130.622 9.44074ZM151.069 30.9843V33.0431C151.069 33.244 151.244 33.3948 151.42 33.3948H154.43C154.63 33.3948 154.781 33.244 154.781 33.0431V9.44074C154.781 9.23986 154.63 9.08922 154.43 9.08922H151.42C151.219 9.08922 151.069 9.23986 151.069 9.44074V18.2289C149.714 16.3206 147.758 15.3414 145.6 15.3414C141.211 15.3414 138.05 18.8817 138.05 24.5564C138.05 30.4068 141.261 33.8217 145.6 33.8217C147.833 33.8217 149.764 32.742 151.069 30.9843ZM77.6418 30.4571C80.5514 30.4571 82.4578 27.9963 82.4578 24.5815C82.4578 21.1416 80.5514 18.7561 77.6418 18.7561C75.9111 18.7561 74.1302 19.7858 73.2772 21.0913V28.0466C74.0799 29.3522 75.9111 30.4571 77.6418 30.4571ZM118.152 30.4571C121.312 30.4571 123.043 27.7202 123.043 24.5815C123.043 21.468 121.312 18.7561 118.152 18.7561C115.016 18.7561 113.261 21.493 113.261 24.5815C113.261 27.7202 115.016 30.4571 118.152 30.4571ZM146.704 30.4318C148.435 30.4318 150.266 29.3774 151.069 28.0716V21.0913C150.266 19.7858 148.435 18.7311 146.704 18.7311C143.744 18.7311 141.888 21.1666 141.888 24.5564C141.888 27.9963 143.744 30.4318 146.704 30.4318Z" fill="var(--fill-0, white)"/>
</g>
<defs>
<clipPath id="clip0_0_11">
<rect width="156.27" height="49.7223" fill="white"/>
</clipPath>
</defs>
</svg>
