<svg preserveAspectRatio="none" width="100%" height="100%" overflow="visible" style="display: block;" viewBox="0 0 25.9991 21.1066" fill="none" xmlns="http://www.w3.org/2000/svg">
<g id="Group 1">
<path id="Vector" d="M17.0293 0H7.56012L6.77602 4.38455L15.3211 4.39655C19.5296 4.39655 20.7738 5.92474 20.7378 8.45706C20.7178 9.75722 20.1577 11.9535 19.9137 12.6656C19.2656 14.5618 17.9334 16.7301 12.9408 16.7221L4.63575 16.7181L3.84766 21.1066H13.2928C16.6253 21.1066 18.0414 20.7186 19.5416 20.0265C22.87 18.4903 24.8503 15.2059 25.6424 10.9214C26.8225 4.54057 25.3503 0 17.0293 0Z" fill="var(--fill-0, white)"/>
<path id="Vector_2" d="M3.47644 8.35285C0.996125 8.35285 0.64008 9.96905 0.408051 10.9452C0.100012 12.2253 0 12.7414 0 12.7414H9.69321C12.1735 12.7414 12.5296 11.1252 12.7616 10.1491C13.0696 8.86891 13.1696 8.35285 13.1696 8.35285H3.47644Z" fill="var(--fill-0, white)"/>
</g>
</svg>
