<svg width="81" height="110" viewBox="0 0 81 110" fill="none" xmlns="http://www.w3.org/2000/svg">
<g id="Layer_1" clip-path="url(#clip0_0_4)">
<path id="Vector" d="M26.0873 85.09C26.0873 85.09 21.9042 87.5277 29.0915 88.3657C37.8 89.356 42.2493 89.2036 51.8324 87.4134C51.8324 87.4134 54.3423 89.0132 57.8789 90.3844C36.3549 99.5637 9.20282 89.813 26.0873 85.09Z" fill="var(--fill-0, #5382A1)"/>
<path id="Vector_2" d="M23.4634 73.0159C23.4634 73.0159 18.7479 76.5201 25.9352 77.2438C35.2141 78.196 42.5915 78.2722 55.293 75.8345C55.293 75.8345 57.0423 77.6247 59.8183 78.5769C33.807 86.2327 4.8676 79.2244 23.4634 73.0159Z" fill="var(--fill-0, #5382A1)"/>
<path id="Vector_3" d="M45.5963 52.6005C50.8823 58.6947 44.1893 64.2176 44.1893 64.2176C44.1893 64.2176 57.6513 57.2473 51.4527 48.5631C45.6724 40.4503 41.2611 36.4129 65.2189 22.4724C65.2569 22.4724 27.647 31.8803 45.5963 52.6005Z" fill="var(--fill-0, #F8981D)"/>
<path id="Vector_4" d="M74.0411 94.003C74.0411 94.003 77.1594 96.5549 70.6186 98.5355C58.2214 102.306 18.9763 103.449 8.06224 98.6879C4.14534 96.9739 11.4848 94.6124 13.8045 94.1173C16.2003 93.584 17.6073 93.6983 17.6073 93.6983C13.2341 90.6131 -10.5716 99.7544 5.51435 102.344C49.3608 109.467 85.4115 99.1069 74.0411 94.003Z" fill="var(--fill-0, #5382A1)"/>
<path id="Vector_5" d="M28.1022 60.5608C28.1022 60.5608 8.1374 65.3219 21.029 67.0359C26.467 67.7596 37.343 67.6072 47.4205 66.7693C55.6726 66.0837 63.9628 64.5982 63.9628 64.5982C63.9628 64.5982 61.0346 65.8551 58.943 67.3025C38.674 72.6349 -0.494994 70.1592 10.7994 64.7125C20.3444 60.0276 28.1022 60.5608 28.1022 60.5608Z" fill="var(--fill-0, #5382A1)"/>
<path id="Vector_6" d="M63.9261 80.5954C84.5374 69.8544 74.9923 59.5705 68.3374 60.9417C66.7022 61.2845 65.9796 61.5892 65.9796 61.5892C65.9796 61.5892 66.5881 60.637 67.7289 60.218C80.9247 55.6093 91.0402 73.8918 63.5078 81.1287C63.5078 81.1287 63.812 80.8621 63.9261 80.5954Z" fill="var(--fill-0, #5382A1)"/>
<path id="Vector_7" d="M51.4911 0C51.4911 0 62.8996 11.4266 40.6531 29.0235C22.8179 43.1163 36.5841 51.1531 40.6531 60.3705C30.2334 50.9626 22.5897 42.6974 27.7235 34.9654C35.2531 23.6531 56.0925 18.1683 51.4911 0Z" fill="var(--fill-0, #F8981D)"/>
<path id="Vector_8" d="M30.119 109.657C49.8937 110.914 80.2782 108.971 81.0007 99.5635C81.0007 99.5635 79.6317 103.106 64.6486 105.924C47.7641 109.124 26.9246 108.743 14.6035 106.686C14.6035 106.724 17.1514 108.819 30.119 109.657Z" fill="var(--fill-0, #5382A1)"/>
</g>
<defs>
<clipPath id="clip0_0_4">
<rect width="81" height="110" fill="white"/>
</clipPath>
</defs>
</svg>
