<svg width="250" height="80" viewBox="0 0 250 80" fill="none" xmlns="http://www.w3.org/2000/svg">
<g id="layer">
<path id="Vector" d="M35.6987 49.9694C35.6987 52.1167 33.9349 53.8805 31.7877 53.8805C29.6404 53.8805 27.8766 52.1167 27.8766 49.9694C27.8766 47.8222 29.6404 46.0584 31.7877 46.0584C33.9733 46.0584 35.6987 47.8222 35.6987 49.9694ZM35.6987 60.0921C35.6987 57.9449 33.9349 56.1811 31.7877 56.1811C29.6404 56.1811 27.8766 57.9449 27.8766 60.0921C27.8766 62.2393 29.6404 64.0032 31.7877 64.0032C33.9733 63.9648 35.6987 62.2393 35.6987 60.0921ZM35.6987 39.8467C35.6987 37.6995 33.9349 35.9357 31.7877 35.9357C29.6404 35.9357 27.8766 37.6995 27.8766 39.8467C27.8766 41.994 29.6404 43.7578 31.7877 43.7578C33.9733 43.7578 35.6987 41.994 35.6987 39.8467ZM26.803 34.7854C26.803 32.6381 25.0392 30.8743 22.892 30.8743C20.7447 30.8743 18.9809 32.6381 18.9809 34.7854C18.9809 36.9326 20.7447 38.6964 22.892 38.6964C25.0392 38.6964 26.803 36.9709 26.803 34.7854ZM26.803 55.0308C26.803 52.8835 25.0392 51.1197 22.892 51.1197C20.7447 51.1197 18.9809 52.8835 18.9809 55.0308C18.9809 57.178 20.7447 58.9418 22.892 58.9418C25.0392 58.9418 26.803 57.178 26.803 55.0308ZM26.803 44.9081C26.803 42.7608 25.0392 40.997 22.892 40.997C20.7447 40.997 18.9809 42.7608 18.9809 44.9081C18.9809 47.0553 20.7447 48.8191 22.892 48.8191C25.0392 48.8191 26.803 47.0553 26.803 44.9081ZM17.869 39.8467C17.869 37.6995 16.1052 35.9357 13.9579 35.9357C11.8107 35.9357 10.0469 37.6995 10.0469 39.8467C10.0469 41.994 11.8107 43.7578 13.9579 43.7578C16.1052 43.7578 17.869 41.994 17.869 39.8467ZM17.869 29.7624C17.869 27.6151 16.1052 25.8513 13.9579 25.8513C11.8107 25.8513 10.0469 27.6151 10.0469 29.7624C10.0469 31.9096 11.8107 33.6734 13.9579 33.6734C16.1052 33.6351 17.869 31.9096 17.869 29.7624ZM17.869 49.9694C17.869 47.8222 16.1052 46.0584 13.9579 46.0584C11.8107 46.0584 10.0469 47.8222 10.0469 49.9694C10.0469 52.1167 11.8107 53.8805 13.9579 53.8805C16.1052 53.8805 17.869 52.1167 17.869 49.9694Z" fill="var(--fill-0, #111A44)"/>
<path id="Vector_2" d="M35.6971 19.6396C35.6971 21.7868 33.9333 23.5506 31.786 23.5506C29.6388 23.5506 27.875 21.7868 27.875 19.6396C27.875 17.4923 29.6388 15.7285 31.786 15.7285C33.9716 15.7285 35.6971 17.4923 35.6971 19.6396ZM53.5652 39.8466C53.5652 37.6994 51.8014 35.9356 49.6541 35.9356C47.5069 35.9356 45.7431 37.6994 45.7431 39.8466C45.7431 41.9939 47.5069 43.7576 49.6541 43.7576C51.8397 43.7576 53.5652 41.9939 53.5652 39.8466ZM53.5652 29.7622C53.5652 27.615 51.8014 25.8512 49.6541 25.8512C47.5069 25.8512 45.7431 27.615 45.7431 29.7622C45.7431 31.9095 47.5069 33.6733 49.6541 33.6733C51.8397 33.635 53.5652 31.9095 53.5652 29.7622ZM53.5652 49.9693C53.5652 47.8221 51.8014 46.0583 49.6541 46.0583C47.5069 46.0583 45.7431 47.8221 45.7431 49.9693C45.7431 52.1165 47.5069 53.8804 49.6541 53.8804C51.8397 53.8804 53.5652 52.1165 53.5652 49.9693ZM44.6311 24.7009C44.6311 22.5537 42.8673 20.7899 40.7201 20.7899C38.5729 20.7899 36.8091 22.5537 36.8091 24.7009C36.8091 26.8481 38.5729 28.6119 40.7201 28.6119C42.9057 28.5736 44.6311 26.8481 44.6311 24.7009Z" fill="var(--fill-0, #2AACE2)"/>
<path id="Vector_3" d="M35.6983 29.7622C35.6983 31.9094 33.9345 33.6732 31.7872 33.6732C29.64 33.6732 27.8762 31.9094 27.8762 29.7622C27.8762 27.6149 29.64 25.8511 31.7872 25.8511C33.9728 25.8511 35.6983 27.5766 35.6983 29.7622ZM26.8026 24.7008C26.8026 22.5536 25.0388 20.7898 22.8915 20.7898C20.7443 20.7898 18.9805 22.5536 18.9805 24.7008C18.9805 26.8481 20.7443 28.6119 22.8915 28.6119C25.0388 28.5735 26.8026 26.8481 26.8026 24.7008ZM44.6323 34.7852C44.6323 32.638 42.8685 30.8742 40.7213 30.8742C38.574 30.8742 36.8102 32.638 36.8102 34.7852C36.8102 36.9324 38.574 38.6962 40.7213 38.6962C42.9068 38.6962 44.6323 36.9708 44.6323 34.7852ZM44.6323 55.0306C44.6323 52.8834 42.8685 51.1196 40.7213 51.1196C38.574 51.1196 36.8102 52.8834 36.8102 55.0306C36.8102 57.1778 38.574 58.9416 40.7213 58.9416C42.9068 58.9416 44.6323 57.1778 44.6323 55.0306ZM44.6323 44.9079C44.6323 42.7607 42.8685 40.9969 40.7213 40.9969C38.574 40.9969 36.8102 42.7607 36.8102 44.9079C36.8102 47.0551 38.574 48.8189 40.7213 48.8189C42.9068 48.8189 44.6323 47.0551 44.6323 44.9079Z" fill="var(--fill-0, #F89938)"/>
<path id="Vector_4" d="M233.243 27.5384H231.863V27.04H235.199V27.5384H233.818V31.066H233.243V27.5384ZM239.57 31.0277V28.1136L238.113 30.5676H237.844L236.387 28.1519V31.066H235.85V27.04H236.311L237.998 29.8774L239.646 27.04H240.107V31.066H239.57V31.0277ZM185.084 63.9648H192.637L177.722 45.6749L191.717 27.3084H184.163L168.788 47.6304V15.4602H162.883V63.9648H168.788V57.4464L174.079 50.5062L185.084 63.9648ZM152.683 63.9648H160.237L145.321 45.6749L159.317 27.3084H151.763L136.387 47.6304V15.4602H130.482V63.9648H136.387V57.4464L141.679 50.5062L152.683 63.9648ZM70.1295 58.52V15.4602H64.2246V58.52V63.9648H70.1295H90.2215V58.52H70.1295ZM118.366 27.3084V38.6964V48.7424C118.366 54.4173 113.764 59.0185 108.09 59.0185C102.415 59.0185 97.8136 54.4173 97.8136 48.7424V38.6964V27.3084H91.9087V49.3176H91.947C91.947 49.5476 91.9087 49.7777 91.9087 50.0461C91.9087 58.1366 99.1556 64.6933 108.128 64.6933C112.039 64.6933 115.605 63.428 118.404 61.3574V64.0032H124.309V27.3467H118.366V27.3084ZM223.159 27.3084V32.3314C219.708 28.8038 214.876 26.6182 209.547 26.6182C199.041 26.6182 190.49 35.1304 190.49 45.6749C190.49 56.1811 199.002 64.7317 209.547 64.7317C214.876 64.7317 219.708 62.5461 223.159 59.0185V64.0415H229.064V27.3851H223.159V27.3084ZM209.585 59.2486C202.07 59.2486 195.973 53.1519 195.973 45.6366C195.973 38.1213 202.07 32.0246 209.585 32.0246C217.1 32.0246 223.197 38.1213 223.197 45.6366C223.197 53.1519 217.062 59.2486 209.585 59.2486Z" fill="var(--fill-0, #111A44)"/>
</g>
</svg>
