<svg preserveAspectRatio="none" width="100%" height="100%" overflow="visible" style="display: block;" viewBox="0 0 32 32" fill="none" xmlns="http://www.w3.org/2000/svg">
<g id="Layer_1" clip-path="url(#clip0_0_7)">
<path id="Vector" d="M11.1529 0H20.8471C24.0549 0 25.6627 0 27.3882 0.54902C28.3222 0.886284 29.1705 1.42516 29.8727 2.12734C30.5748 2.82952 31.1137 3.67776 31.451 4.61176C32 6.33726 32 7.9451 32 11.1529V20.8471C32 24.0549 32 25.6627 31.451 27.3882C31.1137 28.3222 30.5748 29.1705 29.8727 29.8727C29.1705 30.5748 28.3222 31.1137 27.3882 31.451C25.6627 32 24.0549 32 20.8471 32H11.1529C7.9451 32 6.33726 32 4.61176 31.451C3.67776 31.1137 2.82952 30.5748 2.12734 29.8727C1.42516 29.1705 0.886284 28.3222 0.54902 27.3882C0 25.6627 0 24.0549 0 20.8471V11.1529C0 7.9451 0 6.33726 0.54902 4.61176C0.886284 3.67776 1.42516 2.82952 2.12734 2.12734C2.82952 1.42516 3.67776 0.886284 4.61176 0.54902C6.33726 0 7.9451 0 11.1529 0Z" fill="var(--fill-0, #449BF7)"/>
<path id="Vector_2" fill-rule="evenodd" clip-rule="evenodd" d="M24.1255 18.6353C24.1378 19.5293 23.974 20.417 23.6433 21.2477C23.3126 22.0784 22.8215 22.8358 22.1981 23.4767C21.5746 24.1176 20.8311 24.6295 20.0098 24.983C19.1886 25.3366 18.3058 25.5249 17.4118 25.5373C16.5177 25.5496 15.63 25.3858 14.7994 25.0551C13.9687 24.7243 13.2112 24.2333 12.5703 23.6098C11.9294 22.9864 11.4176 22.2428 11.064 21.4216C10.7105 20.6004 10.5222 19.7175 10.5098 18.8235H9.63137C9.64768 20.8592 10.462 22.8072 11.8993 24.2489C13.3365 25.6906 15.282 26.5108 17.3176 26.5333C19.3978 26.5635 21.4047 25.7661 22.8969 24.3165C24.3891 22.867 25.2443 20.8841 25.2745 18.8039C25.3047 16.7238 24.5073 14.7169 23.0577 13.2247C21.6082 11.7325 19.6252 10.8772 17.5451 10.8471V11.7412C19.3309 11.8224 21.0153 12.5941 22.243 13.8935C23.4707 15.1929 24.1456 16.9184 24.1255 18.7059V18.6353Z" fill="var(--fill-0, white)"/>
<path id="Vector_3" fill-rule="evenodd" clip-rule="evenodd" d="M22.6118 18.6353C22.6267 19.3305 22.5046 20.0219 22.2523 20.6699C22 21.3179 21.6226 21.9099 21.1416 22.4121C20.6605 22.9143 20.0853 23.3168 19.4487 23.5966C18.8121 23.8765 18.1266 24.0282 17.4314 24.0431C16.7361 24.0581 16.0448 23.9359 15.3967 23.6837C14.7487 23.4314 14.1567 23.054 13.6546 22.5729C13.1524 22.0919 12.7499 21.5167 12.47 20.8801C12.1902 20.2435 12.0385 19.558 12.0235 18.8627H11.1451C11.2156 20.0676 11.6372 21.2254 12.3581 22.1934C13.0789 23.1613 14.0674 23.8971 15.2015 24.3098C16.3356 24.7225 17.5658 24.7941 18.7401 24.5158C19.9145 24.2375 20.9817 23.6214 21.81 22.7437C22.6383 21.8659 23.1915 20.7648 23.4012 19.5763C23.611 18.3878 23.4683 17.1639 22.9905 16.0556C22.5128 14.9473 21.7211 14.0031 20.713 13.3395C19.7049 12.676 18.5245 12.3221 17.3176 12.3216H17.6549V13.2157C19.0147 13.3211 20.2835 13.9398 21.204 14.9462C22.1245 15.9526 22.6278 17.2715 22.6118 18.6353Z" fill="var(--fill-0, white)"/>
<path id="Vector_4" d="M11.1529 6.03137C11.1446 5.96931 11.1496 5.90617 11.1677 5.84621C11.1857 5.78624 11.2164 5.73083 11.2576 5.68368C11.2988 5.63654 11.3497 5.59876 11.4067 5.57287C11.4637 5.54699 11.5256 5.5336 11.5882 5.5336C11.6509 5.5336 11.7128 5.54699 11.7698 5.57287C11.8268 5.59876 11.8776 5.63654 11.9189 5.68368C11.9601 5.73083 11.9908 5.78624 12.0088 5.84621C12.0269 5.90617 12.0319 5.96931 12.0235 6.03137V18.8627H11.1529V6.03137ZM15.5059 11.6706V10.7765H17.6549V11.6706H15.5059ZM12.6745 9.76471H13.5451V18.8235H12.6745V9.76471ZM9.63137 9.76471H10.502V18.8235H9.63137V9.76471Z" fill="var(--fill-0, white)"/>
<path id="Vector_5" d="M13.1843 14.7765V13.8824H17.2549V14.7765H13.1843ZM13.0196 13.2078V12.3294H17.6549V13.2235L13.0196 13.2078ZM9.57647 13.2078C9.45927 13.2058 9.34756 13.1578 9.26541 13.0742C9.18326 12.9905 9.13724 12.878 9.13725 12.7608C9.13621 12.7024 9.1468 12.6445 9.16841 12.5903C9.19002 12.5361 9.2222 12.4867 9.26309 12.4451C9.30398 12.4035 9.35275 12.3705 9.40656 12.3479C9.46036 12.3253 9.51813 12.3137 9.57647 12.3137H10.1176V13.2078H9.57647Z" fill="var(--fill-0, white)"/>
<path id="Vector_6" fill-rule="evenodd" clip-rule="evenodd" d="M13.5451 6C13.5451 5.47997 13.3385 4.98123 12.9708 4.61352C12.6031 4.2458 12.1043 4.03922 11.5843 4.03922C11.0643 4.03922 10.5655 4.2458 10.1978 4.61352C9.83011 4.98123 9.62353 5.47997 9.62353 6V12.6824H10.4941V6C10.4941 5.71294 10.6082 5.43764 10.8111 5.23466C11.0141 5.03168 11.2894 4.91765 11.5765 4.91765C11.8635 4.91765 12.1388 5.03168 12.3418 5.23466C12.5448 5.43764 12.6588 5.71294 12.6588 6V12.6824H13.5373L13.5451 6ZM12.6745 18.8235C12.7251 19.731 13.0404 20.6038 13.5816 21.334C14.1228 22.0642 14.866 22.6198 15.7195 22.9323C16.573 23.2447 17.4993 23.3002 18.384 23.0919C19.2687 22.8837 20.073 22.4208 20.6975 21.7604C21.322 21.1 21.7393 20.2712 21.8979 19.3762C22.0565 18.4813 21.9494 17.5595 21.5898 16.7248C21.2303 15.89 20.6341 15.1789 19.8748 14.6794C19.1155 14.1798 18.2265 13.9136 17.3176 13.9137H17.2549V14.8157H17.302C18.063 14.7946 18.8133 14.9991 19.4584 15.4035C20.1035 15.8079 20.6145 16.394 20.9272 17.0882C21.2399 17.7824 21.3402 18.5535 21.2156 19.3046C21.091 20.0557 20.747 20.7531 20.2269 21.3091C19.7068 21.8651 19.0339 22.2549 18.2928 22.4293C17.5517 22.6036 16.7755 22.5549 16.0621 22.2892C15.3486 22.0235 14.7297 21.5527 14.2832 20.936C13.8367 20.3193 13.5826 19.5843 13.5529 18.8235H12.6745Z" fill="var(--fill-0, white)"/>
<path id="Vector_7" fill-rule="evenodd" clip-rule="evenodd" d="M9.45882 10.7765H10.3529V11.6706H9.45882C9.16553 11.6706 8.88424 11.7871 8.67685 11.9945C8.46945 12.2019 8.35294 12.4832 8.35294 12.7765C8.35294 13.0698 8.46945 13.3511 8.67685 13.5584C8.88424 13.7658 9.16553 13.8824 9.45882 13.8824H10.2431V14.7765H9.45882C8.92839 14.7765 8.41968 14.5658 8.04461 14.1907C7.66954 13.8156 7.45882 13.3069 7.45882 12.7765C7.45882 12.246 7.66954 11.7373 8.04461 11.3623C8.41968 10.9872 8.92839 10.7765 9.45882 10.7765ZM13.1686 14.7765H15.9843V13.8824H13.1686V14.7765ZM15.9843 11.6392H12.8471V10.7765H15.9843V11.6706V11.6392Z" fill="var(--fill-0, white)"/>
</g>
<defs>
<clipPath id="clip0_0_7">
<rect width="32" height="32" fill="white"/>
</clipPath>
</defs>
</svg>
