<svg preserveAspectRatio="none" width="100%" height="100%" overflow="visible" style="display: block;" viewBox="0 0 826 140" fill="none" xmlns="http://www.w3.org/2000/svg">
<g id="Frame" clip-path="url(#clip0_0_19)">
<path id="Vector" d="M233.2 134L248.25 48.5996H199.25C171.6 48.5996 153.75 63.6496 149.025 91.2996C144.125 118.95 156.55 134 184.2 134H233.2ZM208.525 113H195.925C180.875 113 175.275 106.35 178.075 91.2996C180.7 76.2496 188.4 69.5996 203.45 69.5996H216.05L208.525 113Z" fill="var(--fill-0, white)"/>
<path id="Vector_2" d="M302.22 134C319.02 134 330.395 124.2 333.37 107.4C336.345 90.5996 328.295 80.7996 311.495 80.7996H292.245C288.745 80.7996 286.995 78.6996 287.695 75.1996C288.22 71.6996 290.67 69.5996 294.17 69.5996H334.77L338.62 48.5996H290.32C273.52 48.5996 261.97 58.3996 258.995 75.1996C256.02 91.9996 264.07 101.8 280.87 101.8H300.12C303.62 101.8 305.37 103.9 304.67 107.4C304.145 110.9 301.695 113 298.195 113H251.645L247.97 134H302.22Z" fill="var(--fill-0, white)"/>
<path id="Vector_3" d="M403.45 134L407.125 113H388.225C382.625 113 380.875 110.9 381.75 105.3L388.05 69.5996H414.3L418.15 48.5996H391.9L395.75 25.8496H367.4L363.55 48.5996H351.65L347.8 69.5996H359.7L353.225 106.7C349.725 126.65 355.85 134 375.8 134H403.45Z" fill="var(--fill-0, white)"/>
<path id="Vector_4" fill-rule="evenodd" clip-rule="evenodd" d="M62.114 21.1545C56.2432 21.1545 48.6316 19.6255 48.6316 26.1862C48.6316 32.7469 56.2503 31.2257 62.114 31.2257C68.1188 31.2257 68.1188 21.1545 62.114 21.1545ZM67.1885 61.4549H29.0176C23.0199 61.4549 23.0199 71.5339 29.0176 71.5339H67.1885C73.1861 71.5339 73.1861 61.4549 67.1885 61.4549ZM49.7592 121.921H31.435C25.4302 121.921 25.4302 132 31.435 132H49.7592C55.764 132 55.764 121.921 49.7592 121.921ZM114.98 47.5222L112.005 63.3896H138.554C140.859 73.5031 138.449 79.3341 133.621 89.7572H107.058L99.1361 132H64.3059C58.3082 132 58.3012 121.921 64.3059 121.921H78.4015C84.4062 121.921 84.3992 111.842 78.4015 111.842H45.9182C39.9205 111.842 39.9205 101.763 45.9182 101.763H92.7579C98.7556 101.763 98.7556 91.6919 92.7579 91.6919H4.49826C-1.49942 91.6919 -1.49942 81.6129 4.49826 81.6129H86.3373C92.335 81.6129 92.328 71.5339 86.3373 71.5339C81.6787 71.5339 74.8283 72.743 74.8283 66.4944C74.8283 60.2457 81.6505 61.4549 86.1682 61.4549H99.1361C105.134 61.4549 105.134 51.3837 99.1361 51.3837H48.6316C42.6339 51.4227 42.6339 41.2813 48.6316 41.2813H88.0993C94.104 41.2813 94.0899 31.2023 88.0993 31.2023C82.1086 31.2023 74.3279 32.7001 74.3279 26.1862C74.3316 24.8517 74.8127 23.5731 75.6659 22.6301C76.5191 21.6871 77.675 21.1566 78.8807 21.1545H162.101C165.675 31.0294 164.299 36.8246 157.168 47.5222H114.98Z" fill="var(--fill-0, white)"/>
<path id="Vector_5" d="M446.5 134L453.15 95.5001H486.05C511.6 95.5001 528.05 82.2001 532.425 56.65C536.975 31.1001 525.425 17.8 499.875 17.8H438.275L417.8 134H446.5ZM457.525 71.3501L462.6 41.9501H490.25C500.05 41.9501 504.075 46.85 502.325 56.65C500.75 66.4501 494.975 71.3501 485.175 71.3501H457.525Z" fill="var(--fill-0, white)"/>
<path id="Vector_6" d="M622.145 134L637.195 48.5996H588.195C560.545 48.5996 542.695 63.6497 537.97 91.2996C533.07 118.95 545.495 134 573.145 134H622.145ZM597.47 113H584.87C569.82 113 564.22 106.35 567.02 91.2996C569.645 76.2496 577.345 69.5996 592.395 69.5996H604.995L597.47 113Z" fill="var(--fill-0, white)"/>
<path id="Vector_7" d="M691.165 134C707.965 134 719.34 124.2 722.315 107.4C725.29 90.5997 717.24 80.7996 700.44 80.7996H681.19C677.69 80.7996 675.94 78.6997 676.64 75.1997C677.165 71.6997 679.615 69.5996 683.115 69.5996H723.715L727.565 48.5996H679.265C662.465 48.5996 650.915 58.3997 647.94 75.1997C644.965 91.9997 653.015 101.8 669.815 101.8H689.065C692.565 101.8 694.315 103.9 693.615 107.4C693.09 110.9 690.64 113 687.14 113H640.59L636.915 134H691.165Z" fill="var(--fill-0, white)"/>
<path id="Vector_8" d="M782.596 134C799.396 134 810.771 124.2 813.746 107.4C816.721 90.5997 808.671 80.7996 791.871 80.7996H772.621C769.121 80.7996 767.371 78.6997 768.071 75.1997C768.596 71.6997 771.046 69.5996 774.546 69.5996H815.146L818.996 48.5996H770.696C753.896 48.5996 742.346 58.3997 739.371 75.1997C736.396 91.9997 744.446 101.8 761.246 101.8H780.496C783.996 101.8 785.746 103.9 785.046 107.4C784.521 110.9 782.071 113 778.571 113H732.021L728.346 134H782.596Z" fill="var(--fill-0, white)"/>
</g>
<defs>
<clipPath id="clip0_0_19">
<rect width="826" height="140" fill="white"/>
</clipPath>
</defs>
</svg>
