<svg preserveAspectRatio="none" width="100%" height="100%" overflow="visible" style="display: block;" viewBox="0 0 32 32" fill="none" xmlns="http://www.w3.org/2000/svg">
<g id="Layer_1" clip-path="url(#clip0_0_7)">
<path id="Vector" d="M9.78199 13.4471L16 7.22907L22.218 13.4471L25.8325 9.83254L16 0L6.16746 9.83254L9.78199 13.4471Z" fill="var(--fill-0, #F5BC00)"/>
<path id="Vector_2" d="M3.61394 12.3916L0.00359947 16.0019L3.61394 19.6123L7.22429 16.0019L3.61394 12.3916Z" fill="var(--fill-0, #F5BC00)"/>
<path id="Vector_3" d="M9.78199 18.5529L16 24.7709L22.218 18.5529L25.8325 22.1675L16 32L6.16746 22.1675L9.78199 18.5529Z" fill="var(--fill-0, #F5BC00)"/>
<path id="Vector_4" d="M28.3841 12.3927L24.7737 16.0031L28.3841 19.6134L31.9944 16.0031L28.3841 12.3927Z" fill="var(--fill-0, #F5BC00)"/>
<path id="Vector_5" d="M19.6651 16L16 12.3349L13.2954 15.0395L12.9668 15.3428L12.3349 16L16 19.6651L19.6651 16Z" fill="var(--fill-0, #F5BC00)"/>
</g>
<defs>
<clipPath id="clip0_0_7">
<rect width="32" height="32" fill="white"/>
</clipPath>
</defs>
</svg>
