<svg preserveAspectRatio="none" width="100%" height="100%" overflow="visible" style="display: block;" viewBox="0 0 32 32" fill="none" xmlns="http://www.w3.org/2000/svg">
<g id="Layer_1" clip-path="url(#clip0_0_15)">
<path id="Vector" d="M16 32C7.17333 32 0 24.8267 0 16C0 7.17333 7.17333 0 16 0C24.8267 0 32 7.17333 32 16C32 24.8267 24.8267 32 16 32Z" fill="var(--fill-0, #1652F0)"/>
<path id="Vector_2" d="M19.6533 19.1733C18.8267 20 17.7067 20.48 16.48 20.48C14 20.48 11.9733 18.4533 11.9733 15.9733C11.9733 13.4933 14 11.4667 16.48 11.4667C17.7333 11.4667 18.8533 11.9733 19.6533 12.7733L22.1333 10.2933C20.6933 8.88 18.6933 8 16.48 8C12.0533 8 8.48 11.5733 8.48 16C8.48 20.4267 12.0533 24 16.48 24C18.6933 24 20.6933 23.0933 22.1333 21.6533L19.6533 19.1733Z" fill="var(--fill-0, white)"/>
</g>
<defs>
<clipPath id="clip0_0_15">
<rect width="32" height="32" fill="white"/>
</clipPath>
</defs>
</svg>
