<svg preserveAspectRatio="none" width="100%" height="100%" overflow="visible" style="display: block;" viewBox="0 0 32 24.381" fill="none" xmlns="http://www.w3.org/2000/svg">
<g id="Group-3">
<path id="Fill-1" fill-rule="evenodd" clip-rule="evenodd" d="M16 0C7.1619 0 0 6.93333 0 15.5429V22.1714C0 23.3905 0.990476 24.381 2.28571 24.381C3.58095 24.381 4.57143 23.3905 4.57143 22.1714V15.5429C4.57143 14.3238 5.5619 13.3333 6.85714 13.3333C8.15238 13.3333 9.14286 14.3238 9.14286 15.5429V22.1714C9.14286 23.3905 10.1333 24.381 11.4286 24.381C12.7238 24.381 13.7143 23.3905 13.7143 22.1714V15.5429C13.7143 14.3238 14.7048 13.3333 16 13.3333C17.2952 13.3333 18.2857 14.3238 18.2857 15.5429V22.1714C18.2857 23.3905 19.2762 24.381 20.5714 24.381C21.8667 24.381 22.8571 23.3905 22.8571 22.1714V15.5429C22.8571 14.3238 23.8476 13.3333 25.1429 13.3333C26.4381 13.3333 27.4286 14.3238 27.4286 15.5429V22.1714C27.4286 23.3905 28.419 24.381 29.7143 24.381C31.0095 24.381 32 23.3905 32 22.1714V15.5429C32 6.93333 24.8381 0 16 0Z" fill="var(--fill-0, #5848D5)"/>
</g>
</svg>
