<svg preserveAspectRatio="none" width="100%" height="100%" overflow="visible" style="display: block;" viewBox="0 0 22.6248 31.823" fill="none" xmlns="http://www.w3.org/2000/svg">
<g id="Logo">
<path id="Vector" d="M14.3231 29.5929C13.3319 29.8761 12.3408 30.0531 11.385 30.0531H11.2434C10.2877 30.0531 9.26113 29.9115 8.26998 29.5929C7.80981 29.4513 7.31423 29.7345 7.17264 30.1947C7.03105 30.6549 7.31423 31.1504 7.77441 31.292C8.94255 31.646 10.1107 31.823 11.2434 31.823H11.385C12.5178 31.823 13.6859 31.646 14.8187 31.292C15.2788 31.1504 15.562 30.6549 15.4204 30.1947C15.3142 29.7345 14.8187 29.4513 14.3231 29.5929ZM22.0753 7.82301C22.0753 7.78761 22.0753 7.78761 22.0753 7.78761C20.5532 3.11504 16.2346 0 11.3142 0C6.39388 0 2.0399 3.15044 0.553171 7.82301C0.553171 7.82301 0.553171 7.82301 0.553171 7.85841C-0.43798 10.7611 -0.0839973 14.6903 1.50892 18.3717C3.73901 23.3628 7.70361 26.8673 11.2434 26.8673H11.2788H11.3142C14.8541 26.8673 18.8541 23.3982 21.0487 18.3717C22.7125 14.6903 23.0664 10.7611 22.0753 7.82301ZM16.8718 3.53982C15.0664 3.46903 13.1195 4.24779 11.3142 5.76991C9.47352 4.24779 7.52662 3.46903 5.75671 3.53982C7.34963 2.40708 9.26114 1.76991 11.3142 1.76991C13.3673 1.76991 15.2788 2.40708 16.8718 3.53982ZM12.7656 24.7434C12.3054 24.9558 11.8098 25.0619 11.3142 25.0619C10.7833 25.0619 10.2877 24.9558 9.8629 24.7434C6.85405 23.3628 6.21689 17.7699 8.51777 12.531C9.26113 10.8673 10.2169 9.38053 11.3142 8.17699C12.4116 9.38053 13.3673 10.8673 14.1107 12.531C16.4116 17.7699 15.7744 23.3628 12.7656 24.7434ZM3.13724 17.6637C1.68591 14.3717 1.36733 10.9027 2.21689 8.38938C2.67706 7.04425 3.45583 6.0885 4.44698 5.62832C6.0045 4.92035 8.0576 5.41593 10.0045 7.00885C8.76556 8.35398 7.70361 10.0177 6.88945 11.8584C5.33193 15.3628 5.01335 19.0088 5.72131 21.8053C4.73016 20.6372 3.84521 19.2212 3.13724 17.6637ZM19.4912 17.6637C18.7833 19.2212 17.8983 20.6372 16.9072 21.8053C17.6151 19.0088 17.2611 15.3628 15.739 11.8584C14.9249 10.0177 13.8629 8.35398 12.624 7.00885C14.5709 5.45133 16.5886 4.92035 18.1815 5.62832C19.1726 6.0885 19.9514 7.04425 20.4116 8.38938C21.2611 10.9027 20.9072 14.3717 19.4912 17.6637Z" fill="var(--fill-0, #49CC68)"/>
</g>
</svg>
